  0
SECTION
  2
HEADER
  9
$ACADVER
  1
AC1024
  9
$ACADMAINTVER
 70
     6
  9
$DWGCODEPAGE
  3
ANSI_1252
  9
$INSBASE
 10
0.0
 20
0.0
 30
0.0
  9
$EXTMIN
 10
1.000000000000000E+20
 20
1.000000000000000E+20
 30
1.000000000000000E+20
  9
$EXTMAX
 10
-1.000000000000000E+20
 20
-1.000000000000000E+20
 30
-1.000000000000000E+20
  9
$LIMMIN
 10
0.0
 20
0.0
  9
$LIMMAX
 10
12.0
 20
9.0
  9
$ORTHOMODE
 70
     0
  9
$REGENMODE
 70
     1
  9
$FILLMODE
 70
     1
  9
$QTEXTMODE
 70
     0
  9
$MIRRTEXT
 70
     1
  9
$LTSCALE
 40
1.0
  9
$ATTMODE
 70
     1
  9
$TEXTSIZE
 40
0.2
  9
$TRACEWID
 40
0.05
  9
$TEXTSTYLE
  7
Standard
  9
$CLAYER
  8
0
  9
$CELTYPE
  6
ByLayer
  9
$CECOLOR
 62
   256
  9
$CELTSCALE
 40
1.0
  9
$DISPSILH
 70
     0
  9
$DIMSCALE
 40
1.0
  9
$DIMASZ
 40
0.18
  9
$DIMEXO
 40
0.0625
  9
$DIMDLI
 40
0.38
  9
$DIMRND
 40
0.0
  9
$DIMDLE
 40
0.0
  9
$DIMEXE
 40
0.18
  9
$DIMTP
 40
0.0
  9
$DIMTM
 40
0.0
  9
$DIMTXT
 40
0.18
  9
$DIMCEN
 40
0.09
  9
$DIMTSZ
 40
0.0
  9
$DIMTOL
 70
     0
  9
$DIMLIM
 70
     0
  9
$DIMTIH
 70
     1
  9
$DIMTOH
 70
     1
  9
$DIMSE1
 70
     0
  9
$DIMSE2
 70
     0
  9
$DIMTAD
 70
     0
  9
$DIMZIN
 70
     0
  9
$DIMBLK
  1

  9
$DIMASO
 70
     1
  9
$DIMSHO
 70
     1
  9
$DIMPOST
  1

  9
$DIMAPOST
  1

  9
$DIMALT
 70
     0
  9
$DIMALTD
 70
     2
  9
$DIMALTF
 40
25.4
  9
$DIMLFAC
 40
1.0
  9
$DIMTOFL
 70
     0
  9
$DIMTVP
 40
0.0
  9
$DIMTIX
 70
     0
  9
$DIMSOXD
 70
     0
  9
$DIMSAH
 70
     0
  9
$DIMBLK1
  1

  9
$DIMBLK2
  1

  9
$DIMSTYLE
  2
Standard
  9
$DIMCLRD
 70
     0
  9
$DIMCLRE
 70
     0
  9
$DIMCLRT
 70
     0
  9
$DIMTFAC
 40
1.0
  9
$DIMGAP
 40
0.09
  9
$DIMJUST
 70
     0
  9
$DIMSD1
 70
     0
  9
$DIMSD2
 70
     0
  9
$DIMTOLJ
 70
     1
  9
$DIMTZIN
 70
     0
  9
$DIMALTZ
 70
     0
  9
$DIMALTTZ
 70
     0
  9
$DIMUPT
 70
     0
  9
$DIMDEC
 70
     4
  9
$DIMTDEC
 70
     4
  9
$DIMALTU
 70
     2
  9
$DIMALTTD
 70
     2
  9
$DIMTXSTY
  7
Standard
  9
$DIMAUNIT
 70
     0
  9
$DIMADEC
 70
     0
  9
$DIMALTRND
 40
0.0
  9
$DIMAZIN
 70
     0
  9
$DIMDSEP
 70
    46
  9
$DIMATFIT
 70
     3
  9
$DIMFRAC
 70
     0
  9
$DIMLDRBLK
  1

  9
$DIMLUNIT
 70
     2
  9
$DIMLWD
 70
    -2
  9
$DIMLWE
 70
    -2
  9
$DIMTMOVE
 70
     0
  9
$DIMFXL
 40
1.0
  9
$DIMFXLON
 70
     0
  9
$DIMJOGANG
 40
0.7853981633974483
  9
$DIMTFILL
 70
     0
  9
$DIMTFILLCLR
 70
     0
  9
$DIMARCSYM
 70
     0
  9
$DIMLTYPE
  6

  9
$DIMLTEX1
  6

  9
$DIMLTEX2
  6

  9
$DIMTXTDIRECTION
 70
     0
  9
$LUNITS
 70
     2
  9
$LUPREC
 70
     4
  9
$SKETCHINC
 40
0.1
  9
$FILLETRAD
 40
0.5
  9
$AUNITS
 70
     0
  9
$AUPREC
 70
     0
  9
$MENU
  1
.
  9
$ELEVATION
 40
0.0
  9
$PELEVATION
 40
0.0
  9
$THICKNESS
 40
0.0
  9
$LIMCHECK
 70
     0
  9
$CHAMFERA
 40
0.5
  9
$CHAMFERB
 40
0.5
  9
$CHAMFERC
 40
1.0
  9
$CHAMFERD
 40
0.0
  9
$SKPOLY
 70
     0
  9
$TDCREATE
 40
2459315.885807164
  9
$TDUCREATE
 40
2459316.177473831
  9
$TDUPDATE
 40
2459315.885807257
  9
$TDUUPDATE
 40
2459316.177473924
  9
$TDINDWG
 40
0.0000000116
  9
$TDUSRTIMER
 40
0.0000000116
  9
$USRTIMER
 70
     1
  9
$ANGBASE
 50
0.0
  9
$ANGDIR
 70
     0
  9
$PDMODE
 70
     0
  9
$PDSIZE
 40
0.0
  9
$PLINEWID
 40
0.0
  9
$SPLFRAME
 70
     0
  9
$SPLINETYPE
 70
     6
  9
$SPLINESEGS
 70
     8
  9
$HANDSEED
  5
65
  9
$SURFTAB1
 70
     6
  9
$SURFTAB2
 70
     6
  9
$SURFTYPE
 70
     6
  9
$SURFU
 70
     6
  9
$SURFV
 70
     6
  9
$UCSBASE
  2

  9
$UCSNAME
  2

  9
$UCSORG
 10
0.0
 20
0.0
 30
0.0
  9
$UCSXDIR
 10
1.0
 20
0.0
 30
0.0
  9
$UCSYDIR
 10
0.0
 20
1.0
 30
0.0
  9
$UCSORTHOREF
  2

  9
$UCSORTHOVIEW
 70
     0
  9
$UCSORGTOP
 10
0.0
 20
0.0
 30
0.0
  9
$UCSORGBOTTOM
 10
0.0
 20
0.0
 30
0.0
  9
$UCSORGLEFT
 10
0.0
 20
0.0
 30
0.0
  9
$UCSORGRIGHT
 10
0.0
 20
0.0
 30
0.0
  9
$UCSORGFRONT
 10
0.0
 20
0.0
 30
0.0
  9
$UCSORGBACK
 10
0.0
 20
0.0
 30
0.0
  9
$PUCSBASE
  2

  9
$PUCSNAME
  2

  9
$PUCSORG
 10
0.0
 20
0.0
 30
0.0
  9
$PUCSXDIR
 10
1.0
 20
0.0
 30
0.0
  9
$PUCSYDIR
 10
0.0
 20
1.0
 30
0.0
  9
$PUCSORTHOREF
  2

  9
$PUCSORTHOVIEW
 70
     0
  9
$PUCSORGTOP
 10
0.0
 20
0.0
 30
0.0
  9
$PUCSORGBOTTOM
 10
0.0
 20
0.0
 30
0.0
  9
$PUCSORGLEFT
 10
0.0
 20
0.0
 30
0.0
  9
$PUCSORGRIGHT
 10
0.0
 20
0.0
 30
0.0
  9
$PUCSORGFRONT
 10
0.0
 20
0.0
 30
0.0
  9
$PUCSORGBACK
 10
0.0
 20
0.0
 30
0.0
  9
$USERI1
 70
     0
  9
$USERI2
 70
     0
  9
$USERI3
 70
     0
  9
$USERI4
 70
     0
  9
$USERI5
 70
     0
  9
$USERR1
 40
0.0
  9
$USERR2
 40
0.0
  9
$USERR3
 40
0.0
  9
$USERR4
 40
0.0
  9
$USERR5
 40
0.0
  9
$WORLDVIEW
 70
     1
  9
$SHADEDGE
 70
     3
  9
$SHADEDIF
 70
    70
  9
$TILEMODE
 70
     1
  9
$MAXACTVP
 70
    64
  9
$PINSBASE
 10
0.0
 20
0.0
 30
0.0
  9
$PLIMCHECK
 70
     0
  9
$PEXTMIN
 10
1.000000000000000E+20
 20
1.000000000000000E+20
 30
1.000000000000000E+20
  9
$PEXTMAX
 10
-1.000000000000000E+20
 20
-1.000000000000000E+20
 30
-1.000000000000000E+20
  9
$PLIMMIN
 10
0.0
 20
0.0
  9
$PLIMMAX
 10
12.0
 20
9.0
  9
$UNITMODE
 70
     0
  9
$VISRETAIN
 70
     1
  9
$PLINEGEN
 70
     0
  9
$PSLTSCALE
 70
     1
  9
$TREEDEPTH
 70
  3020
  9
$CMLSTYLE
  2
Standard
  9
$CMLJUST
 70
     0
  9
$CMLSCALE
 40
1.0
  9
$PROXYGRAPHICS
 70
     1
  9
$MEASUREMENT
 70
     0
  9
$CELWEIGHT
370
    -1
  9
$ENDCAPS
280
     0
  9
$JOINSTYLE
280
     0
  9
$LWDISPLAY
290
     1
  9
$INSUNITS
 70
     1
  9
$HYPERLINKBASE
  1

  9
$STYLESHEET
  1

  9
$XEDIT
290
     1
  9
$CEPSNTYPE
380
     0
  9
$PSTYLEMODE
290
     1
  9
$FINGERPRINTGUID
  2
{1D7AF078-27AC-4074-8B4F-9473D2EFF422}
  9
$VERSIONGUID
  2
{FAEB1C32-E019-11D5-929B-00C0DF256EC4}
  9
$EXTNAMES
290
     1
  9
$PSVPSCALE
 40
0.0
  9
$OLESTARTUP
290
     0
  9
$SORTENTS
280
   127
  9
$INDEXCTL
280
     0
  9
$HIDETEXT
280
     1
  9
$XCLIPFRAME
280
     2
  9
$HALOGAP
280
     0
  9
$OBSCOLOR
 70
   257
  9
$OBSLTYPE
280
     0
  9
$INTERSECTIONDISPLAY
280
     0
  9
$INTERSECTIONCOLOR
 70
   257
  9
$DIMASSOC
280
     2
  9
$PROJECTNAME
  1

  9
$CAMERADISPLAY
290
     0
  9
$LENSLENGTH
 40
50.0
  9
$CAMERAHEIGHT
 40
0.0
  9
$STEPSPERSEC
 40
2.0
  9
$STEPSIZE
 40
6.0
  9
$3DDWFPREC
 40
2.0
  9
$PSOLWIDTH
 40
0.25
  9
$PSOLHEIGHT
 40
4.0
  9
$LOFTANG1
 40
1.570796326794897
  9
$LOFTANG2
 40
1.570796326794897
  9
$LOFTMAG1
 40
0.0
  9
$LOFTMAG2
 40
0.0
  9
$LOFTPARAM
 70
     7
  9
$LOFTNORMALS
280
     1
  9
$LATITUDE
 40
37.795
  9
$LONGITUDE
 40
-122.394
  9
$NORTHDIRECTION
 40
0.0
  9
$TIMEZONE
 70
 -8000
  9
$LIGHTGLYPHDISPLAY
280
     1
  9
$TILEMODELIGHTSYNCH
280
     1
  9
$CMATERIAL
347
3C
  9
$SOLIDHIST
280
     1
  9
$SHOWHIST
280
     1
  9
$DWFFRAME
280
     2
  9
$DGNFRAME
280
     2
  9
$REALWORLDSCALE
290
     1
  9
$INTERFERECOLOR
 62
   256
  9
$CSHADOW
280
     0
  9
$SHADOWPLANELOCATION
 40
0.0
  0
ENDSEC
  0
SECTION
  2
CLASSES
  0
CLASS
  1
ACDBDICTIONARYWDFLT
  2
AcDbDictionaryWithDefault
  3
ObjectDBX Classes
 90
        0
 91
        4
280
     0
281
     0
  0
CLASS
  1
VISUALSTYLE
  2
AcDbVisualStyle
  3
ObjectDBX Classes
 90
     4095
 91
        4
280
     0
281
     0
  0
CLASS
  1
MATERIAL
  2
AcDbMaterial
  3
ObjectDBX Classes
 90
     1153
 91
        4
280
     0
281
     0
  0
CLASS
  1
SUN
  2
AcDbSun
  3
SCENEOE
 90
     1024
 91
        4
280
     0
281
     0
  0
ENDSEC
  0
SECTION
  2
TABLES
  0
TABLE
  2
VPORT
  5
8
330
0
100
AcDbSymbolTable
 70
     1
  0
VPORT
  5
29
330
8
100
AcDbSymbolTableRecord
100
AcDbViewportTableRecord
  2
*Active
 70
     0
 10
0.0
 20
0.0
 11
1.0
 21
1.0
 12
0.0
 22
0.0
 13
0.0
 23
0.0
 14
0.5
 24
0.5
 15
0.5
 25
0.5
 16
0.0
 26
0.0
 36
1.0
 17
4.133858267716669
 27
-5.846456692913193
 37
0.0
 40
11.69291338582639
 41
0.7070707070707533
 42
50.0
 43
0.0
 44
0.0
 50
0.0
 51
0.0
 71
     0
 72
   100
 73
     1
 74
     3
 75
     0
 76
     0
 77
     0
 78
     0
281
     0
 65
     1
110
0.0
120
0.0
130
0.0
111
1.0
121
0.0
131
0.0
112
0.0
122
1.0
132
0.0
 79
     0
146
0.0
 60
     3
 61
     5
292
     1
282
     1
141
0.0
142
0.0
 63
   250
361
3F
  0
ENDTAB
  0
TABLE
  2
LTYPE
  5
5
330
0
100
AcDbSymbolTable
 70
     1
  0
LTYPE
  5
14
330
5
100
AcDbSymbolTableRecord
100
AcDbLinetypeTableRecord
  2
ByBlock
 70
     0
  3

 72
    65
 73
     0
 40
0.0
  0
LTYPE
  5
15
330
5
100
AcDbSymbolTableRecord
100
AcDbLinetypeTableRecord
  2
ByLayer
 70
     0
  3

 72
    65
 73
     0
 40
0.0
  0
LTYPE
  5
16
330
5
100
AcDbSymbolTableRecord
100
AcDbLinetypeTableRecord
  2
Continuous
 70
     0
  3
Solid line
 72
    65
 73
     0
 40
0.0
  0
ENDTAB
  0
TABLE
  2
LAYER
  5
2
330
0
100
AcDbSymbolTable
 70
     2
  0
LAYER
  5
10
330
2
100
AcDbSymbolTableRecord
100
AcDbLayerTableRecord
  2
0
 70
     0
 62
     7
  6
Continuous
370
    -3
390
F
347
3E
  0
LAYER
  5
40
330
2
100
AcDbSymbolTableRecord
100
AcDbLayerTableRecord
  2
Layer 1
 70
     0
 62
     7
  6
Continuous
370
    -3
390
F
347
3E
  0
ENDTAB
  0
TABLE
  2
STYLE
  5
3
330
0
100
AcDbSymbolTable
 70
     1
  0
STYLE
  5
11
330
3
100
AcDbSymbolTableRecord
100
AcDbTextStyleTableRecord
  2
Standard
 70
     0
 40
0.0
 41
1.0
 50
0.0
 71
     0
 42
0.2
  3
txt
  4

  0
ENDTAB
  0
TABLE
  2
VIEW
  5
6
330
0
100
AcDbSymbolTable
 70
     0
  0
ENDTAB
  0
TABLE
  2
UCS
  5
7
330
0
100
AcDbSymbolTable
 70
     0
  0
ENDTAB
  0
TABLE
  2
APPID
  5
9
330
0
100
AcDbSymbolTable
 70
     1
  0
APPID
  5
12
330
9
100
AcDbSymbolTableRecord
100
AcDbRegAppTableRecord
  2
ACAD
 70
     0
  0
ENDTAB
  0
TABLE
  2
DIMSTYLE
  5
A
330
0
100
AcDbSymbolTable
 70
     1
100
AcDbDimStyleTable
  0
DIMSTYLE
105
27
330
A
100
AcDbSymbolTableRecord
100
AcDbDimStyleTableRecord
  2
Standard
 70
     0
178
     0
340
11
  0
ENDTAB
  0
TABLE
  2
BLOCK_RECORD
  5
1
330
0
100
AcDbSymbolTable
 70
     2
  0
BLOCK_RECORD
  5
1F
330
1
100
AcDbSymbolTableRecord
100
AcDbBlockTableRecord
  2
*Model_Space
340
22
 70
     0
280
     1
281
     0
  0
BLOCK_RECORD
  5
1B
330
1
100
AcDbSymbolTableRecord
100
AcDbBlockTableRecord
  2
*Paper_Space
340
1E
 70
     0
280
     1
281
     0
  0
BLOCK_RECORD
  5
23
330
1
100
AcDbSymbolTableRecord
100
AcDbBlockTableRecord
  2
*Paper_Space0
340
26
 70
     0
280
     1
281
     0
  0
BLOCK_RECORD
  5
41
330
1
100
AcDbSymbolTableRecord
100
AcDbBlockTableRecord
  2
block 2
340
0
102
{BLKREFS
331
42
102
}
 70
     0
280
     1
281
     0
  0
ENDTAB
  0
ENDSEC
  0
SECTION
  2
BLOCKS
  0
BLOCK
  5
20
330
1F
100
AcDbEntity
  8
0
100
AcDbBlockBegin
  2
*Model_Space
 70
     0
 10
0.0
 20
0.0
 30
0.0
  3
*Model_Space
  1

  0
ENDBLK
  5
21
330
1F
100
AcDbEntity
  8
0
100
AcDbBlockEnd
  0
BLOCK
  5
1C
330
1B
100
AcDbEntity
 67
     1
  8
0
100
AcDbBlockBegin
  2
*Paper_Space
 70
     0
 10
0.0
 20
0.0
 30
0.0
  3
*Paper_Space
  1

  0
ENDBLK
  5
1D
330
1B
100
AcDbEntity
 67
     1
  8
0
100
AcDbBlockEnd
  0
BLOCK
  5
24
330
23
100
AcDbEntity
  8
0
100
AcDbBlockBegin
  2
*Paper_Space0
 70
     0
 10
0.0
 20
0.0
 30
0.0
  3
*Paper_Space0
  1

  0
ENDBLK
  5
25
330
23
100
AcDbEntity
  8
0
100
AcDbBlockEnd
  0
BLOCK
  5
43
330
41
100
AcDbEntity
  8
0
100
AcDbBlockBegin
  2
block 2
 70
     0
 10
0.0
 20
0.0
 30
0.0
  3
block 2
  1

  0
SPLINE
  5
45
330
41
100
AcDbEntity
  8
Layer 1
 62
   250
420
  2301728
370
    35
100
AcDbSpline
210
0.0
220
0.0
230
1.0
 70
    11
 71
     3
 72
   692
 73
   688
 74
     0
 42
0.0000000001
 43
0.0000000001
 12
1.0
 22
0.0
 32
0.0
 13
1.0
 23
0.0
 33
0.0
 40
0.0
 40
0.0
 40
0.0
 40
0.0
 40
1.0
 40
1.0
 40
1.0
 40
2.0
 40
2.0
 40
2.0
 40
3.0
 40
3.0
 40
3.0
 40
4.0
 40
4.0
 40
4.0
 40
5.0
 40
5.0
 40
5.0
 40
6.0
 40
6.0
 40
6.0
 40
7.0
 40
7.0
 40
7.0
 40
8.0
 40
8.0
 40
8.0
 40
9.0
 40
9.0
 40
9.0
 40
10.0
 40
10.0
 40
10.0
 40
11.0
 40
11.0
 40
11.0
 40
12.0
 40
12.0
 40
12.0
 40
13.0
 40
13.0
 40
13.0
 40
14.0
 40
14.0
 40
14.0
 40
15.0
 40
15.0
 40
15.0
 40
16.0
 40
16.0
 40
16.0
 40
17.0
 40
17.0
 40
17.0
 40
18.0
 40
18.0
 40
18.0
 40
19.0
 40
19.0
 40
19.0
 40
20.0
 40
20.0
 40
20.0
 40
21.0
 40
21.0
 40
21.0
 40
22.0
 40
22.0
 40
22.0
 40
23.0
 40
23.0
 40
23.0
 40
24.0
 40
24.0
 40
24.0
 40
25.0
 40
25.0
 40
25.0
 40
26.0
 40
26.0
 40
26.0
 40
27.0
 40
27.0
 40
27.0
 40
28.0
 40
28.0
 40
28.0
 40
29.0
 40
29.0
 40
29.0
 40
30.0
 40
30.0
 40
30.0
 40
31.0
 40
31.0
 40
31.0
 40
32.0
 40
32.0
 40
32.0
 40
33.0
 40
33.0
 40
33.0
 40
34.0
 40
34.0
 40
34.0
 40
35.0
 40
35.0
 40
35.0
 40
36.0
 40
36.0
 40
36.0
 40
37.0
 40
37.0
 40
37.0
 40
38.0
 40
38.0
 40
38.0
 40
39.0
 40
39.0
 40
39.0
 40
40.0
 40
40.0
 40
40.0
 40
41.0
 40
41.0
 40
41.0
 40
42.0
 40
42.0
 40
42.0
 40
43.0
 40
43.0
 40
43.0
 40
44.0
 40
44.0
 40
44.0
 40
45.0
 40
45.0
 40
45.0
 40
46.0
 40
46.0
 40
46.0
 40
47.0
 40
47.0
 40
47.0
 40
48.0
 40
48.0
 40
48.0
 40
49.0
 40
49.0
 40
49.0
 40
50.0
 40
50.0
 40
50.0
 40
51.0
 40
51.0
 40
51.0
 40
52.0
 40
52.0
 40
52.0
 40
53.0
 40
53.0
 40
53.0
 40
54.0
 40
54.0
 40
54.0
 40
55.0
 40
55.0
 40
55.0
 40
56.0
 40
56.0
 40
56.0
 40
57.0
 40
57.0
 40
57.0
 40
58.0
 40
58.0
 40
58.0
 40
59.0
 40
59.0
 40
59.0
 40
60.0
 40
60.0
 40
60.0
 40
61.0
 40
61.0
 40
61.0
 40
62.0
 40
62.0
 40
62.0
 40
63.0
 40
63.0
 40
63.0
 40
64.0
 40
64.0
 40
64.0
 40
65.0
 40
65.0
 40
65.0
 40
66.0
 40
66.0
 40
66.0
 40
67.0
 40
67.0
 40
67.0
 40
68.0
 40
68.0
 40
68.0
 40
69.0
 40
69.0
 40
69.0
 40
70.0
 40
70.0
 40
70.0
 40
71.0
 40
71.0
 40
71.0
 40
72.0
 40
72.0
 40
72.0
 40
73.0
 40
73.0
 40
73.0
 40
74.0
 40
74.0
 40
74.0
 40
75.0
 40
75.0
 40
75.0
 40
76.0
 40
76.0
 40
76.0
 40
77.0
 40
77.0
 40
77.0
 40
78.0
 40
78.0
 40
78.0
 40
79.0
 40
79.0
 40
79.0
 40
80.0
 40
80.0
 40
80.0
 40
81.0
 40
81.0
 40
81.0
 40
82.0
 40
82.0
 40
82.0
 40
83.0
 40
83.0
 40
83.0
 40
84.0
 40
84.0
 40
84.0
 40
85.0
 40
85.0
 40
85.0
 40
86.0
 40
86.0
 40
86.0
 40
87.0
 40
87.0
 40
87.0
 40
88.0
 40
88.0
 40
88.0
 40
89.0
 40
89.0
 40
89.0
 40
90.0
 40
90.0
 40
90.0
 40
91.0
 40
91.0
 40
91.0
 40
92.0
 40
92.0
 40
92.0
 40
93.0
 40
93.0
 40
93.0
 40
94.0
 40
94.0
 40
94.0
 40
95.0
 40
95.0
 40
95.0
 40
96.0
 40
96.0
 40
96.0
 40
97.0
 40
97.0
 40
97.0
 40
98.0
 40
98.0
 40
98.0
 40
99.0
 40
99.0
 40
99.0
 40
100.0
 40
100.0
 40
100.0
 40
101.0
 40
101.0
 40
101.0
 40
102.0
 40
102.0
 40
102.0
 40
103.0
 40
103.0
 40
103.0
 40
104.0
 40
104.0
 40
104.0
 40
105.0
 40
105.0
 40
105.0
 40
106.0
 40
106.0
 40
106.0
 40
107.0
 40
107.0
 40
107.0
 40
108.0
 40
108.0
 40
108.0
 40
109.0
 40
109.0
 40
109.0
 40
110.0
 40
110.0
 40
110.0
 40
111.0
 40
111.0
 40
111.0
 40
112.0
 40
112.0
 40
112.0
 40
113.0
 40
113.0
 40
113.0
 40
114.0
 40
114.0
 40
114.0
 40
115.0
 40
115.0
 40
115.0
 40
116.0
 40
116.0
 40
116.0
 40
117.0
 40
117.0
 40
117.0
 40
118.0
 40
118.0
 40
118.0
 40
119.0
 40
119.0
 40
119.0
 40
120.0
 40
120.0
 40
120.0
 40
121.0
 40
121.0
 40
121.0
 40
122.0
 40
122.0
 40
122.0
 40
123.0
 40
123.0
 40
123.0
 40
124.0
 40
124.0
 40
124.0
 40
125.0
 40
125.0
 40
125.0
 40
126.0
 40
126.0
 40
126.0
 40
127.0
 40
127.0
 40
127.0
 40
128.0
 40
128.0
 40
128.0
 40
129.0
 40
129.0
 40
129.0
 40
130.0
 40
130.0
 40
130.0
 40
131.0
 40
131.0
 40
131.0
 40
132.0
 40
132.0
 40
132.0
 40
133.0
 40
133.0
 40
133.0
 40
134.0
 40
134.0
 40
134.0
 40
135.0
 40
135.0
 40
135.0
 40
136.0
 40
136.0
 40
136.0
 40
137.0
 40
137.0
 40
137.0
 40
138.0
 40
138.0
 40
138.0
 40
139.0
 40
139.0
 40
139.0
 40
140.0
 40
140.0
 40
140.0
 40
141.0
 40
141.0
 40
141.0
 40
142.0
 40
142.0
 40
142.0
 40
143.0
 40
143.0
 40
143.0
 40
144.0
 40
144.0
 40
144.0
 40
145.0
 40
145.0
 40
145.0
 40
146.0
 40
146.0
 40
146.0
 40
147.0
 40
147.0
 40
147.0
 40
148.0
 40
148.0
 40
148.0
 40
149.0
 40
149.0
 40
149.0
 40
150.0
 40
150.0
 40
150.0
 40
151.0
 40
151.0
 40
151.0
 40
152.0
 40
152.0
 40
152.0
 40
153.0
 40
153.0
 40
153.0
 40
154.0
 40
154.0
 40
154.0
 40
155.0
 40
155.0
 40
155.0
 40
156.0
 40
156.0
 40
156.0
 40
157.0
 40
157.0
 40
157.0
 40
158.0
 40
158.0
 40
158.0
 40
159.0
 40
159.0
 40
159.0
 40
160.0
 40
160.0
 40
160.0
 40
161.0
 40
161.0
 40
161.0
 40
162.0
 40
162.0
 40
162.0
 40
163.0
 40
163.0
 40
163.0
 40
164.0
 40
164.0
 40
164.0
 40
165.0
 40
165.0
 40
165.0
 40
166.0
 40
166.0
 40
166.0
 40
167.0
 40
167.0
 40
167.0
 40
168.0
 40
168.0
 40
168.0
 40
169.0
 40
169.0
 40
169.0
 40
170.0
 40
170.0
 40
170.0
 40
171.0
 40
171.0
 40
171.0
 40
172.0
 40
172.0
 40
172.0
 40
173.0
 40
173.0
 40
173.0
 40
174.0
 40
174.0
 40
174.0
 40
175.0
 40
175.0
 40
175.0
 40
176.0
 40
176.0
 40
176.0
 40
177.0
 40
177.0
 40
177.0
 40
178.0
 40
178.0
 40
178.0
 40
179.0
 40
179.0
 40
179.0
 40
180.0
 40
180.0
 40
180.0
 40
181.0
 40
181.0
 40
181.0
 40
182.0
 40
182.0
 40
182.0
 40
183.0
 40
183.0
 40
183.0
 40
184.0
 40
184.0
 40
184.0
 40
185.0
 40
185.0
 40
185.0
 40
186.0
 40
186.0
 40
186.0
 40
187.0
 40
187.0
 40
187.0
 40
188.0
 40
188.0
 40
188.0
 40
189.0
 40
189.0
 40
189.0
 40
190.0
 40
190.0
 40
190.0
 40
191.0
 40
191.0
 40
191.0
 40
192.0
 40
192.0
 40
192.0
 40
193.0
 40
193.0
 40
193.0
 40
194.0
 40
194.0
 40
194.0
 40
195.0
 40
195.0
 40
195.0
 40
196.0
 40
196.0
 40
196.0
 40
197.0
 40
197.0
 40
197.0
 40
198.0
 40
198.0
 40
198.0
 40
199.0
 40
199.0
 40
199.0
 40
200.0
 40
200.0
 40
200.0
 40
201.0
 40
201.0
 40
201.0
 40
202.0
 40
202.0
 40
202.0
 40
203.0
 40
203.0
 40
203.0
 40
204.0
 40
204.0
 40
204.0
 40
205.0
 40
205.0
 40
205.0
 40
206.0
 40
206.0
 40
206.0
 40
207.0
 40
207.0
 40
207.0
 40
208.0
 40
208.0
 40
208.0
 40
209.0
 40
209.0
 40
209.0
 40
210.0
 40
210.0
 40
210.0
 40
211.0
 40
211.0
 40
211.0
 40
212.0
 40
212.0
 40
212.0
 40
213.0
 40
213.0
 40
213.0
 40
214.0
 40
214.0
 40
214.0
 40
215.0
 40
215.0
 40
215.0
 40
216.0
 40
216.0
 40
216.0
 40
217.0
 40
217.0
 40
217.0
 40
218.0
 40
218.0
 40
218.0
 40
219.0
 40
219.0
 40
219.0
 40
220.0
 40
220.0
 40
220.0
 40
221.0
 40
221.0
 40
221.0
 40
222.0
 40
222.0
 40
222.0
 40
223.0
 40
223.0
 40
223.0
 40
224.0
 40
224.0
 40
224.0
 40
225.0
 40
225.0
 40
225.0
 40
226.0
 40
226.0
 40
226.0
 40
227.0
 40
227.0
 40
227.0
 40
228.0
 40
228.0
 40
228.0
 40
229.0
 40
229.0
 40
229.0
 40
229.0
 10
6.323705305336008
 20
-6.076417477857224
 30
0.0
 10
6.324062615313222
 20
-6.076396285094638
 30
0.0
 10
6.324419925290435
 20
-6.076374668476799
 30
0.0
 10
6.324777235267649
 20
-6.076353475714212
 30
0.0
 10
6.324777235267649
 20
-6.071900876294724
 30
0.0
 10
6.324581414141347
 20
-6.067438104349194
 30
0.0
 10
6.324808176701026
 20
-6.062997372876755
 30
0.0
 10
6.326303114173899
 20
-6.033713213534307
 30
0.0
 10
6.322228169783708
 20
-6.005945184427319
 30
0.0
 10
6.310264855303457
 20
-5.978436978589646
 30
0.0
 10
6.301538099525462
 20
-5.95837209482771
 30
0.0
 10
6.299749006507883
 20
-5.935407193433396
 30
0.0
 10
6.293032596188873
 20
-5.914318699238517
 30
0.0
 10
6.287251210555192
 20
-5.896165826517163
 30
0.0
 10
6.281860195608361
 20
-5.876695611673413
 30
0.0
 10
6.271014587426937
 20
-5.861601278448587
 30
0.0
 10
6.249723490421729
 20
-5.831969557799716
 30
0.0
 10
6.229542470320817
 20
-5.802865536939255
 30
0.0
 10
6.218090749129411
 20
-5.76730026662133
 30
0.0
 10
6.20792924332429
 20
-5.735745514695332
 30
0.0
 10
6.189205437578847
 20
-5.706967438523457
 30
0.0
 10
6.178802334280236
 20
-5.675464820793422
 30
0.0
 10
6.170187476288699
 20
-5.649377801614819
 30
0.0
 10
6.155549635169993
 20
-5.627829000616556
 30
0.0
 10
6.141179670570383
 20
-5.605433336825323
 30
0.0
 10
6.130826158336226
 20
-5.589298015102233
 30
0.0
 10
6.119502865286095
 20
-5.573121579419737
 30
0.0
 10
6.112928022621165
 20
-5.555366282924498
 30
0.0
 10
6.100054690915436
 20
-5.520599979756096
 30
0.0
 10
6.07688676285554
 20
-5.494518046840514
 30
0.0
 10
6.050065202525679
 20
-5.470599894985045
 30
0.0
 10
6.043983303518517
 20
-5.465175395473326
 30
0.0
 10
6.037948028589047
 20
-5.459528795809698
 30
0.0
 10
6.032854983884186
 20
-5.453207418585306
 30
0.0
 10
6.026375508650895
 20
-5.44516646060462
 30
0.0
 10
6.019120378306929
 20
-5.437058957349412
 30
0.0
 10
6.01527050105541
 20
-5.427715492180154
 30
0.0
 10
6.000725484236833
 20
-5.392413859828795
 30
0.0
 10
5.976156290714698
 20
-5.367494561868726
 30
0.0
 10
5.942463189043691
 20
-5.35005418982554
 30
0.0
 10
5.92243857153067
 20
-5.339688809644334
 30
0.0
 10
5.906287143308014
 20
-5.324579641485709
 30
0.0
 10
5.896583401174767
 20
-5.303224966192728
 30
0.0
 10
5.881205084931278
 20
-5.269378852775844
 30
0.0
 10
5.858836547876156
 20
-5.241486634080098
 30
0.0
 10
5.825769480411964
 20
-5.223007392814907
 30
0.0
 10
5.803201731388526
 20
-5.210396003654751
 30
0.0
 10
5.786122060164567
 20
-5.192528809373067
 30
0.0
 10
5.774313028995948
 20
-5.169260003763257
 30
0.0
 10
5.769690039765262
 20
-5.160151354403448
 30
0.0
 10
5.762933363197337
 20
-5.151971371900193
 30
0.0
 10
5.756331817651547
 20
-5.144048669534741
 30
0.0
 10
5.73500935535771
 20
-5.118457984855922
 30
0.0
 10
5.706340633840782
 20
-5.104821289841817
 30
0.0
 10
5.67492872113462
 20
-5.096828651359829
 30
0.0
 10
5.643901668997032
 20
-5.088933923440991
 30
0.0
 10
5.620657023136573
 20
-5.071142599249368
 30
0.0
 10
5.60151317683666
 20
-5.046043586662563
 30
0.0
 10
5.579337917776329
 20
-5.01697305036699
 30
0.0
 10
5.548729210772207
 20
-5.002350468037346
 30
0.0
 10
5.512496792288048
 20
-5.004236200052319
 30
0.0
 10
5.488264987546295
 20
-5.005497169426235
 30
0.0
 10
5.464100151934316
 20
-5.010835202466612
 30
0.0
 10
5.440257022458405
 20
-5.01597953365692
 30
0.0
 10
5.417106896319082
 20
-5.020973820088139
 30
0.0
 10
5.394508205862267
 20
-5.028467157083569
 30
0.0
 10
5.371484812443214
 20
-5.034120114575987
 30
0.0
 10
5.327625542559316
 20
-5.044889004956834
 30
0.0
 10
5.283586981903934
 20
-5.054927592738951
 30
0.0
 10
5.23972855973054
 20
-5.065699450106573
 30
0.0
 10
5.224633802650462
 20
-5.069406911993509
 30
0.0
 10
5.209824724010054
 20
-5.074299049309047
 30
0.0
 10
5.194937232148074
 20
-5.078823280266079
 30
0.0
 10
5.163048482283708
 20
-5.088514730597025
 30
0.0
 10
5.13064178130172
 20
-5.096835433043856
 30
0.0
 10
5.099455783444733
 20
-5.108430417310362
 30
0.0
 10
5.054349107554976
 20
-5.125201521911056
 30
0.0
 10
5.00937721763527
 20
-5.142733870543856
 30
0.0
 10
4.96570995418041
 20
-5.162892002461174
 30
0.0
 10
4.890402743893952
 20
-5.197656610208569
 30
0.0
 10
4.815292202444298
 20
-5.469170655076192
 30
0.0
 10
4.741743991452545
 20
-5.507463010083787
 30
0.0
 10
4.693138390459707
 20
-5.532769711743943
 30
0.0
 10
4.644211507186052
 20
-5.304507128329229
 30
0.0
 10
4.591371168373118
 20
-5.291953383483309
 30
0.0
 10
4.563995629229238
 20
-5.28544974850067
 30
0.0
 10
4.536532352048249
 20
-5.279304271205748
 30
0.0
 10
4.509065684025245
 20
-5.273190583054707
 30
0.0
 10
4.454810516382016
 20
-5.261114946932745
 30
0.0
 10
4.400478207082971
 20
-5.249380514288431
 30
0.0
 10
4.346276021346208
 20
-5.237071333922763
 30
0.0
 10
4.326085676429758
 20
-5.232485643954229
 30
0.0
 10
4.305754187714481
 20
-5.227894443867424
 30
0.0
 10
4.286230567109012
 20
-5.221150906812302
 30
0.0
 10
4.258682518877675
 20
-5.211635780266079
 30
0.0
 10
4.232692138696469
 20
-5.198250007561001
 30
0.0
 10
4.213758524601417
 20
-5.175279596048413
 30
0.0
 10
4.196359690372901
 20
-5.154171180656704
 30
0.0
 10
4.180364240882883
 20
-5.131883599954663
 30
0.0
 10
4.16418653363462
 20
-5.109796502786694
 30
0.0
 10
4.124957458520687
 20
-5.056239848598326
 30
0.0
 10
4.11285596722837
 20
-4.995749770202059
 30
0.0
 10
4.119407921709707
 20
-4.930728679164733
 30
0.0
 10
4.121934522865305
 20
-4.905651283195779
 30
0.0
 10
4.125077409556929
 20
-4.880636617804056
 30
0.0
 10
4.127784573049768
 20
-4.85557659990041
 30
0.0
 10
4.131656066919125
 20
-4.81974896318166
 30
0.0
 10
4.12042432660337
 20
-4.789876068894551
 30
0.0
 10
4.092283728730106
 20
-4.766829787291903
 30
0.0
 10
4.079660471622901
 20
-4.756491533846821
 30
0.0
 10
4.067097401961442
 20
-4.746071900193379
 30
0.0
 10
4.054266031925636
 20
-4.735995589293856
 30
0.0
 10
3.990753017873986
 20
-4.686120753749694
 30
0.0
 10
3.967395202661312
 20
-4.622283702358092
 30
0.0
 10
3.985643866669559
 20
-4.543112415669182
 30
0.0
 10
3.991129825192779
 20
-4.519312095573696
 30
0.0
 10
3.995825293671512
 20
-4.495043203497415
 30
0.0
 10
3.997583445255714
 20
-4.470750363599412
 30
0.0
 10
3.999381439233578
 20
-4.44590863115041
 30
0.0
 10
3.995331926158491
 20
-4.421237712367858
 30
0.0
 10
3.971964362275028
 20
-4.405702781608852
 30
0.0
 10
3.946633924720774
 20
-4.388862800529751
 30
0.0
 10
3.920737640405453
 20
-4.39275315595781
 30
0.0
 10
3.896337988984025
 20
-4.40732212059811
 30
0.0
 10
3.873333245196035
 20
-4.421057150030618
 30
0.0
 10
3.852704210094038
 20
-4.438130251498174
 30
0.0
 10
3.836085693383969
 20
-4.459524981112446
 30
0.0
 10
3.811977230520483
 20
-4.490561781920809
 30
0.0
 10
3.786847276500288
 20
-4.520869127840948
 30
0.0
 10
3.764016313365523
 20
-4.552818277078686
 30
0.0
 10
3.730381703719255
 20
-4.599886343145853
 30
0.0
 10
3.695443315318648
 20
-4.646420139668205
 30
0.0
 10
3.666507564993127
 20
-4.696337784592793
 30
0.0
 10
3.636343058292823
 20
-4.748375553486564
 30
0.0
 10
3.606153967987918
 20
-4.80030333194251
 30
0.0
 10
3.571535590302371
 20
-4.849376021422763
 30
0.0
 10
3.524101949080583
 20
-4.916614723137172
 30
0.0
 10
3.475359442841434
 20
-4.982960785691426
 30
0.0
 10
3.425716244192358
 20
-5.048584175041469
 30
0.0
 10
3.415889584036108
 20
-5.061574066941426
 30
0.0
 10
3.400406151690175
 20
-5.071251106193813
 30
0.0
 10
3.385850962345557
 20
-5.079487885300801
 30
0.0
 10
3.360215349010066
 20
-5.093996026712476
 30
0.0
 10
3.330913387747033
 20
-5.097758165926885
 30
0.0
 10
3.302223261539893
 20
-5.100756517977667
 30
0.0
 10
3.246951900930627
 20
-5.106532393493075
 30
0.0
 10
3.191344635034372
 20
-5.109196747605501
 30
0.0
 10
3.136135793074724
 20
-5.115440983174064
 30
0.0
 10
3.097174594479889
 20
-5.119847806226365
 30
0.0
 10
3.05823925105541
 20
-5.12627006100067
 30
0.0
 10
3.020017679874854
 20
-5.134975200160826
 30
0.0
 10
2.973112162296729
 20
-5.145658471780848
 30
0.0
 10
2.926805764116933
 20
-5.159115028312954
 30
0.0
 10
2.880545778087202
 20
-5.172433408033005
 30
0.0
 10
2.853527972775787
 20
-5.180211575757615
 30
0.0
 10
2.826528605167823
 20
-5.188654348516959
 30
0.0
 10
2.800557722328196
 20
-5.199321089782138
 30
0.0
 10
2.764983339122359
 20
-5.213932651875236
 30
0.0
 10
2.729990697249529
 20
-5.230123922491556
 30
0.0
 10
2.695477011811161
 20
-5.247116279533657
 30
0.0
 10
2.644981652178469
 20
-5.271977509324251
 30
0.0
 10
2.594027469235761
 20
-5.296225844420809
 30
0.0
 10
2.545263770234025
 20
-5.324210039706196
 30
0.0
 10
2.470686650618669
 20
-5.367007976039733
 30
0.0
 10
2.397990812538157
 20
-5.413072140943162
 30
0.0
 10
2.324091013615089
 20
-5.457068739928622
 30
0.0
 10
2.304430699690935
 20
-5.468773078850063
 30
0.0
 10
2.283851255653392
 20
-5.47934869123613
 30
0.0
 10
2.262716985091326
 20
-5.488078414000888
 30
0.0
 10
2.214781287323856
 20
-5.507880507506747
 30
0.0
 10
2.166327638438765
 20
-5.526445367532788
 30
0.0
 10
2.117917858572228
 20
-5.545080163675366
 30
0.0
 10
2.063315765405453
 20
-5.566098721753709
 30
0.0
 10
2.008382853214698
 20
-5.586262787644551
 30
0.0
 10
1.953869345795536
 20
-5.607504717440571
 30
0.0
 10
1.905562562755171
 20
-5.62632855302541
 30
0.0
 10
1.857011639089807
 20
-5.644731500345288
 30
0.0
 10
1.80970663793692
 20
-5.66586704247311
 30
0.0
 10
1.759722659665436
 20
-5.688198280266079
 30
0.0
 10
1.711288296194299
 20
-5.713969527282138
 30
0.0
 10
1.661816123139286
 20
-5.737479930385436
 30
0.0
 10
1.558626866683122
 20
-5.786517439879806
 30
0.0
 10
1.457187814525191
 20
-5.838617303567944
 30
0.0
 10
1.36181296541766
 20
-5.901949331427103
 30
0.0
 10
1.326010336158775
 20
-5.925723372496981
 30
0.0
 10
1.289454410153717
 20
-5.948425483635219
 30
0.0
 10
1.252560353621599
 20
-5.97047655310679
 30
0.0
 10
1.217586679271284
 20
-5.991380246411912
 30
0.0
 10
1.181018355500125
 20
-6.009664938116556
 30
0.0
 10
1.146462390500397
 20
-6.03120399044403
 30
0.0
 10
1.116988873824236
 20
-6.049574724764776
 30
0.0
 10
1.088510039460087
 20
-6.069824409416469
 30
0.0
 10
1.061158977956994
 20
-6.091244782273457
 30
0.0
 10
1.025585654389286
 20
-6.119103940259568
 30
0.0
 10
0.9920895394465231
 20
-6.149605835740254
 30
0.0
 10
0.9566840625585024
 20
-6.177691756286044
 30
0.0
 10
0.9334869944500497
 20
-6.196093008184915
 30
0.0
 10
0.9080903295127124
 20
-6.211695543856573
 30
0.0
 10
0.8844090067791512
 20
-6.229521624178838
 30
0.0
 10
0.8571790619142423
 20
-6.250019264152797
 30
0.0
 10
0.8305860655288799
 20
-6.27137733028778
 30
0.0
 10
0.8040482762900562
 20
-6.292773119540167
 30
0.0
 10
0.789647264293257
 20
-6.304383786450974
 30
0.0
 10
0.7753005057686803
 20
-6.316210195684915
 30
0.0
 10
0.7621982922270136
 20
-6.329217041794941
 30
0.0
 10
0.7561816669286195
 20
-6.335189586147155
 30
0.0
 10
0.7516797943361173
 20
-6.343815464375236
 30
0.0
 10
0.749423612831126
 20
-6.352042070956182
 30
0.0
 10
0.7475969026599564
 20
-6.358702532381963
 30
0.0
 10
0.7538768480334915
 20
-6.369719801940341
 30
0.0
 10
0.7538748347210458
 20
-6.369721921216599
 30
0.0
 10
0.7538748347210458
 20
-6.369721921216599
 30
0.0
 10
0.7538748347210458
 20
-6.369721921216599
 30
0.0
 10
0.7538748347210458
 20
-6.369721921216599
 30
0.0
 10
0.7538925306778057
 20
-6.369715987243075
 30
0.0
 10
0.7772366765586108
 20
-6.365013737080314
 30
0.0
 10
0.7988602880088062
 20
-6.354012574021503
 30
0.0
 10
0.8157347073271113
 20
-6.345427385897588
 30
0.0
 10
0.8174892561416729
 20
-6.341897943216382
 30
0.0
 10
0.8302464515084264
 20
-6.337516551479186
 30
0.0
 10
0.8552602691896329
 20
-6.328925429381747
 30
0.0
 10
0.8688676122275562
 20
-6.345721117587042
 30
0.0
 10
0.8628248138673673
 20
-6.365415975714212
 30
0.0
 10
0.8576327989612258
 20
-6.382337972784525
 30
0.0
 10
0.8474439544923673
 20
-6.426900418531052
 30
0.0
 10
0.8442893058175084
 20
-6.444236946037563
 30
0.0
 10
0.8371019923138192
 20
-6.483737288512606
 30
0.0
 10
0.8384788860990839
 20
-6.495897695684915
 30
0.0
 10
0.8448432846315275
 20
-6.535913870001322
 30
0.0
 10
0.847272716970666
 20
-6.551188765563388
 30
0.0
 10
0.8468069000490079
 20
-6.56782508419403
 30
0.0
 10
0.8529688017349346
 20
-6.581438891024542
 30
0.0
 10
0.8729471130617033
 20
-6.625579600795592
 30
0.0
 10
0.8622023824301929
 20
-6.667157681714646
 30
0.0
 10
0.8456943859770136
 20
-6.708366160854186
 30
0.0
 10
0.8393414315363669
 20
-6.724224281242641
 30
0.0
 10
0.8252075543119746
 20
-6.726100688442076
 30
0.0
 10
0.8110179401219789
 20
-6.715322049390427
 30
0.0
 10
0.8057146632122567
 20
-6.711293729077927
 30
0.0
 10
0.8011740078642207
 20
-6.706213400030618
 30
0.0
 10
0.7956976920479771
 20
-6.702472877434047
 30
0.0
 10
0.7888194749866164
 20
-6.697775289679056
 30
0.0
 10
0.7809155282160544
 20
-6.693750784063822
 30
0.0
 10
0.7733190884306269
 20
-6.70054984615692
 30
0.0
 10
0.7659966710654468
 20
-6.707104343769767
 30
0.0
 10
0.7681912875951235
 20
-6.715207608472459
 30
0.0
 10
0.7716944512507223
 20
-6.723110389641079
 30
0.0
 10
0.7782856123428448
 20
-6.737978384161478
 30
0.0
 10
0.7898833516684741
 20
-6.747989845207485
 30
0.0
 10
0.8030097249594897
 20
-6.756888686217684
 30
0.0
 10
0.8522656258723044
 20
-6.790281698370462
 30
0.0
 10
0.897992825850603
 20
-6.827920892435132
 30
0.0
 10
0.9394647310290969
 20
-6.870690430466816
 30
0.0
 10
0.952892359440284
 20
-6.884537781541034
 30
0.0
 10
0.9658489787029794
 20
-6.899183252054272
 30
0.0
 10
0.9809447954211867
 20
-6.91100881357771
 30
0.0
 10
1.024539049808936
 20
-6.945160102775844
 30
0.0
 10
1.059318492490143
 20
-6.98781053748179
 30
0.0
 10
1.096062080407895
 20
-7.028455712991772
 30
0.0
 10
1.161367790246762
 20
-7.100694635110913
 30
0.0
 10
1.23132880827926
 20
-7.168012597757397
 30
0.0
 10
1.30630933213043
 20
-7.229981507126972
 30
0.0
 10
1.34229506685809
 20
-7.259722582430792
 30
0.0
 10
1.380083140079932
 20
-7.287370660501538
 30
0.0
 10
1.417943798513635
 20
-7.314738570250888
 30
0.0
 10
1.487030085270362
 20
-7.364675924444681
 30
0.0
 10
1.556200613258372
 20
-7.414537408548413
 30
0.0
 10
1.626427388533708
 20
-7.46284461544403
 30
0.0
 10
1.685649927799659
 20
-7.503582191398891
 30
0.0
 10
1.745419876123227
 20
-7.543713230488517
 30
0.0
 10
1.806800898258643
 20
-7.581068865389776
 30
0.0
 10
1.861850582571252
 20
-7.614570808342251
 30
0.0
 10
1.919155812605974
 20
-7.644426324564038
 30
0.0
 10
1.975958774167389
 20
-7.674974420267163
 30
0.0
 10
2.039270668902089
 20
-7.709023560349628
 30
0.0
 10
2.102010782902198
 20
-7.744448534579229
 30
0.0
 10
2.167055397905996
 20
-7.774883460930141
 30
0.0
 10
2.245495958140913
 20
-7.811586358743726
 30
0.0
 10
2.325988613577111
 20
-7.843929905293205
 30
0.0
 10
2.405810094222185
 20
-7.877647166713561
 30
0.0
 10
2.446701953488678
 20
-7.894919692077059
 30
0.0
 10
2.488098200504737
 20
-7.910996521775409
 30
0.0
 10
2.529204106673357
 20
-7.927766354810349
 30
0.0
 10
2.551830771576786
 20
-7.936997498337909
 30
0.0
 10
2.573939273434967
 20
-7.947653219366556
 30
0.0
 10
2.596955249387115
 20
-7.955751397806226
 30
0.0
 10
2.68008492027199
 20
-7.98500037716278
 30
0.0
 10
2.763465513465892
 20
-8.013539822827926
 30
0.0
 10
2.846820463417064
 20
-8.042147509188604
 30
0.0
 10
2.906338429793474
 20
-8.062573517625019
 30
0.0
 10
2.965813798717085
 20
-8.083145756123283
 30
0.0
 10
3.025602820526981
 20
-8.102755419344854
 30
0.0
 10
3.061386164371925
 20
-8.11449239512068
 30
0.0
 10
3.091116855222076
 20
-8.135147709248283
 30
0.0
 10
3.113841854543908
 20
-8.164125845098978
 30
0.0
 10
3.15046337214916
 20
-8.210823673603752
 30
0.0
 10
3.186608264523834
 20
-8.257660950486347
 30
0.0
 10
3.228000908770253
 20
-8.300477536450973
 30
0.0
 10
3.272299080767324
 20
-8.34629968000566
 30
0.0
 10
3.31338570152199
 20
-8.395215966898023
 30
0.0
 10
3.3574679192683
 20
-8.441256819762605
 30
0.0
 10
3.425758629717519
 20
-8.512581486103752
 30
0.0
 10
3.500314344642649
 20
-8.5772906196758
 30
0.0
 10
3.575651648651981
 20
-8.64096724185462
 30
0.0
 10
3.606709642222945
 20
-8.667217445305141
 30
0.0
 10
3.637636664521121
 20
-8.694491683043855
 30
0.0
 10
3.676035831052154
 20
-8.710174327358093
 30
0.0
 10
3.717580427406321
 20
-8.727141253085088
 30
0.0
 10
3.756357248966664
 20
-8.725247467820331
 30
0.0
 10
3.782796491859446
 20
-8.690173445739168
 30
0.0
 10
3.793058875214481
 20
-8.676559215053405
 30
0.0
 10
3.796952833412181
 20
-8.658085060051235
 30
0.0
 10
3.80343951418475
 20
-8.641703054571634
 30
0.0
 10
3.809938910614871
 20
-8.625290531513908
 30
0.0
 10
3.815109944686052
 20
-8.608282915682745
 30
0.0
 10
3.822578274221642
 20
-8.59233917653344
 30
0.0
 10
3.831681837318431
 20
-8.572906260951843
 30
0.0
 10
3.843700252981408
 20
-8.554815271097242
 30
0.0
 10
3.852460069469038
 20
-8.535249264966598
 30
0.0
 10
3.870787994409372
 20
-8.494313324753925
 30
0.0
 10
3.899436794729455
 20
-8.461691729159307
 30
0.0
 10
3.932674675860097
 20
-8.432785648701408
 30
0.0
 10
3.967437164331247
 20
-8.402554596726581
 30
0.0
 10
4.010184661889828
 20
-8.386850759649759
 30
0.0
 10
4.051992048500071
 20
-8.369574419588995
 30
0.0
 10
4.072509609670862
 20
-8.361095619133266
 30
0.0
 10
4.09222862754738
 20
-8.350222036505228
 30
0.0
 10
4.113323055715783
 20
-8.343721792364603
 30
0.0
 10
4.139931840709273
 20
-8.335521040954012
 30
0.0
 10
4.164640482609229
 20
-8.323874346346807
 30
0.0
 10
4.187161607554976
 20
-8.30826714826738
 30
0.0
 10
4.224305738685618
 20
-8.28252726653995
 30
0.0
 10
4.260403371199724
 20
-8.255269559156051
 30
0.0
 10
4.296776509627458
 20
-8.228427229918855
 30
0.0
 10
4.306898596894168
 20
-8.220956781107008
 30
0.0
 10
4.315748270695167
 20
-8.211583646070114
 30
0.0
 10
4.326372626435184
 20
-8.205005836418422
 30
0.0
 10
4.35789982776982
 20
-8.185485606654968
 30
0.0
 10
4.392949266246382
 20
-8.176561758184915
 30
0.0
 10
4.429662760441261
 20
-8.174047448831617
 30
0.0
 10
4.443711018904802
 20
-8.173084449699672
 30
0.0
 10
4.458142018660661
 20
-8.175147353209871
 30
0.0
 10
4.471890187605974
 20
-8.172824202575105
 30
0.0
 10
4.521730902802371
 20
-8.164402622578361
 30
0.0
 10
4.570980763777849
 20
-8.173087416686434
 30
0.0
 10
4.620382788788699
 20
-8.176503690015426
 30
0.0
 10
4.662486874075157
 20
-8.179415575594854
 30
0.0
 10
4.70445023941804
 20
-8.18449971933943
 30
0.0
 10
4.746572974335574
 20
-8.186942821010437
 30
0.0
 10
4.770208838593387
 20
-8.188313145039299
 30
0.0
 10
4.792692664276981
 20
-8.193793593444246
 30
0.0
 10
4.812329878089915
 20
-8.20550089935245
 30
0.0
 10
4.861950612410661
 20
-8.235084300502624
 30
0.0
 10
4.910409559486399
 20
-8.266623369784307
 30
0.0
 10
4.95921098160554
 20
-8.297572432555574
 30
0.0
 10
4.988026357039567
 20
-8.315846527878925
 30
0.0
 10
5.015931291392866
 20
-8.335663456318596
 30
0.0
 10
5.04546594918909
 20
-8.352670224439255
 30
0.0
 10
5.083972351098812
 20
-8.374842092657572
 30
0.0
 10
5.123301456052155
 20
-8.39568135996443
 30
0.0
 10
5.162984903995948
 20
-8.415689870977884
 30
0.0
 10
5.209942131914785
 20
-8.439367273050367
 30
0.0
 10
5.256692518470774
 20
-8.463937314283005
 30
0.0
 10
5.305381195092953
 20
-8.48352790401825
 30
0.0
 10
5.33736785552047
 20
-8.496397844881963
 30
0.0
 10
5.372019717770905
 20
-8.501662127108526
 30
0.0
 10
5.407872785804758
 20
-8.492801856926235
 30
0.0
 10
5.439213914683882
 20
-8.485056326056009
 30
0.0
 10
5.464663031708621
 20
-8.467634179788648
 30
0.0
 10
5.490458014618778
 20
-8.450441763067728
 30
0.0
 10
5.515313734291087
 20
-8.433875804408874
 30
0.0
 10
5.542803714352936
 20
-8.425882742071634
 30
0.0
 10
5.571763200572554
 20
-8.423816023864168
 30
0.0
 10
5.602326978919993
 20
-8.421634864738735
 30
0.0
 10
5.630198004853153
 20
-8.413126394415384
 30
0.0
 10
5.654503560408708
 20
-8.394849755960523
 30
0.0
 10
5.686233364553673
 20
-8.3709917915508
 30
0.0
 10
5.720942871118344
 20
-8.353306855027363
 30
0.0
 10
5.758108195011573
 20
-8.339710426262172
 30
0.0
 10
5.779849426294125
 20
-8.331756358608093
 30
0.0
 10
5.798652492971642
 20
-8.319110213317293
 30
0.0
 10
5.815819478377458
 20
-8.302974891594204
 30
0.0
 10
5.83951637779152
 20
-8.280702145825973
 30
0.0
 10
5.864768825979454
 20
-8.259979862568596
 30
0.0
 10
5.890328993080149
 20
-8.239828088480055
 30
0.0
 10
5.909072720022423
 20
-8.225050798983526
 30
0.0
 10
5.926901767331452
 20
-8.209956041903448
 30
0.0
 10
5.941034372990089
 20
-8.190356975063171
 30
0.0
 10
5.953573706757449
 20
-8.17296704179494
 30
0.0
 10
5.968634131562137
 20
-8.157415792608743
 30
0.0
 10
5.981665561276764
 20
-8.140352227884351
 30
0.0
 10
5.996903581431929
 20
-8.120399241908874
 30
0.0
 10
6.014376166474246
 20
-8.101240136819898
 30
0.0
 10
6.025092074948639
 20
-8.078954675394117
 30
0.0
 10
6.04240910511357
 20
-8.04294223778561
 30
0.0
 10
6.064870890324073
 20
-8.011366293097025
 30
0.0
 10
6.091432203529368
 20
-7.982080014478318
 30
0.0
 10
6.09936974082863
 20
-7.973327827385219
 30
0.0
 10
6.106916483585792
 20
-7.964039887253925
 30
0.0
 10
6.113394687253327
 20
-7.95417762325653
 30
0.0
 10
6.135419053844038
 20
-7.920647705857441
 30
0.0
 10
6.158885799856407
 20
-7.88841605709442
 30
0.0
 10
6.186909413680192
 20
-7.859439616664733
 30
0.0
 10
6.198081814260704
 20
-7.847887865633917
 30
0.0
 10
6.207744442434532
 20
-7.834156650898674
 30
0.0
 10
6.215253885929542
 20
-7.81991977684811
 30
0.0
 10
6.236551340763526
 20
-7.779539510870462
 30
0.0
 10
6.269170393226633
 20
-7.753636021015861
 30
0.0
 10
6.311948832218604
 20
-7.739644559156052
 30
0.0
 10
6.359593553355757
 20
-7.724061520825974
 30
0.0
 10
6.409245652965132
 20
-7.720296838480054
 30
0.0
 10
6.45865700279152
 20
-7.715370368889126
 30
0.0
 10
6.488122996036964
 20
-7.712432204284091
 30
0.0
 10
6.517663587806712
 20
-7.710229004685566
 30
0.0
 10
6.547179172116607
 20
-7.707804128790384
 30
0.0
 10
6.579112850637657
 20
-7.705180040926885
 30
0.0
 10
6.611542863658491
 20
-7.702764913702493
 30
0.0
 10
6.641564954994212
 20
-7.715962918531052
 30
0.0
 10
6.688361541772641
 20
-7.736534309318813
 30
0.0
 10
6.734299821666304
 20
-7.759068997632615
 30
0.0
 10
6.780475460500939
 20
-7.781036991474846
 30
0.0
 10
6.80185260012225
 20
-7.791207822095505
 30
0.0
 10
6.82310766943106
 20
-7.801668145853101
 30
0.0
 10
6.84410376318106
 20
-7.812601915926885
 30
0.0
 10
6.873022983151763
 20
-7.827661916876322
 30
0.0
 10
6.901089830211226
 20
-7.844463962910392
 30
0.0
 10
6.930516828773508
 20
-7.858421940205314
 30
0.0
 10
6.980722483341651
 20
-7.88223667137936
 30
0.0
 10
7.031249420190609
 20
-7.905346531269767
 30
0.0
 10
7.084386457679758
 20
-7.922413062980922
 30
0.0
 10
7.136414689830366
 20
-7.939123556280618
 30
0.0
 10
7.188679433211442
 20
-7.950836796162346
 30
0.0
 10
7.243784854489654
 20
-7.942700470750019
 30
0.0
 10
7.284953915090782
 20
-7.936620267163865
 30
0.0
 10
7.311381290036529
 20
-7.905406294860263
 30
0.0
 10
7.309408667694949
 20
-7.864228757154099
 30
0.0
 10
7.308301557777415
 20
-7.84111381100067
 30
0.0
 10
7.299404836043474
 20
-7.832150120136955
 30
0.0
 10
7.276536997501807
 20
-7.831283760002407
 30
0.0
 10
7.266164411781321
 20
-7.830890846184047
 30
0.0
 10
7.255714684405019
 20
-7.831344795158657
 30
0.0
 10
7.245423478892866
 20
-7.830255487161694
 30
0.0
 10
7.230607194713179
 20
-7.828686375019767
 30
0.0
 10
7.218581573510922
 20
-7.821797879468552
 30
0.0
 10
7.211317542206668
 20
-7.808253161044073
 30
0.0
 10
7.206160919214047
 20
-7.798640123934698
 30
0.0
 10
7.204058597165435
 20
-7.788380283711174
 30
0.0
 10
7.210195173500071
 20
-7.778601095343118
 30
0.0
 10
7.21684037613679
 20
-7.768012343444247
 30
0.0
 10
7.227262976776981
 20
-7.768559540574238
 30
0.0
 10
7.238021270776547
 20
-7.770834795565557
 30
0.0
 10
7.249608625648508
 20
-7.773285526631096
 30
0.0
 10
7.261212087020036
 20
-7.776379669968769
 30
0.0
 10
7.272949486651113
 20
-7.777226532761738
 30
0.0
 10
7.28904496598054
 20
-7.778387472296243
 30
0.0
 10
7.299772742401981
 20
-7.770646179978534
 30
0.0
 10
7.305913557289133
 20
-7.756014272833353
 30
0.0
 10
7.316196285696251
 20
-7.731510353019985
 30
0.0
 10
7.308610972111182
 20
-7.712207137145419
 30
0.0
 10
7.284185889374637
 20
-7.702158376837259
 30
0.0
 10
7.277405053057363
 20
-7.699368561570331
 30
0.0
 10
7.269868058970991
 20
-7.698480160962693
 30
0.0
 10
7.262859188528282
 20
-7.696168454419724
 30
0.0
 10
7.248144629609012
 20
-7.691314887932094
 30
0.0
 10
7.232544213213613
 20
-7.687938456996764
 30
0.0
 10
7.219133433048682
 20
-7.680615085957267
 30
0.0
 10
7.196377492293474
 20
-7.668189345397372
 30
0.0
 10
7.178527252221859
 20
-7.650634532436217
 30
0.0
 10
7.176082455129845
 20
-7.62245409216929
 30
0.0
 10
7.174348039439741
 20
-7.602462959221157
 30
0.0
 10
7.182841250974029
 20
-7.589439158901061
 30
0.0
 10
7.202659874834707
 20
-7.585243839619377
 30
0.0
 10
7.213296098521773
 20
-7.582992744377407
 30
0.0
 10
7.224677459741391
 20
-7.582735464239603
 30
0.0
 10
7.235567148868995
 20
-7.583575545348544
 30
0.0
 10
7.250315616208404
 20
-7.584712748988951
 30
0.0
 10
7.264854699053457
 20
-7.588394779560783
 30
0.0
 10
7.279595536998335
 20
-7.589820204772372
 30
0.0
 10
7.293859113929758
 20
-7.591199429761521
 30
0.0
 10
7.306518822588613
 20
-7.581727536450974
 30
0.0
 10
7.307762413897207
 20
-7.570260132615253
 30
0.0
 10
7.308912757050418
 20
-7.559652731085306
 30
0.0
 10
7.29962608848488
 20
-7.548890622388474
 30
0.0
 10
7.285348948185401
 20
-7.54706846866126
 30
0.0
 10
7.256564090329498
 20
-7.543395339049716
 30
0.0
 10
7.231933013940609
 20
-7.529348352151929
 30
0.0
 10
7.207616438148508
 20
-7.515609084166903
 30
0.0
 10
7.191606577579932
 20
-7.506562741529099
 30
0.0
 10
7.177997433157189
 20
-7.492680634324238
 30
0.0
 10
7.17106909521231
 20
-7.474763425122849
 30
0.0
 10
7.164701941620731
 20
-7.458298344013908
 30
0.0
 10
7.162389387367258
 20
-7.441110589700757
 30
0.0
 10
7.176641096351633
 20
-7.426993242831182
 30
0.0
 10
7.191124230303457
 20
-7.412645318704663
 30
0.0
 10
7.207991973901547
 20
-7.403613387145419
 30
0.0
 10
7.228809200735314
 20
-7.412535964049716
 30
0.0
 10
7.247144331214915
 20
-7.420394240416903
 30
0.0
 10
7.26495811973488
 20
-7.429466862080314
 30
0.0
 10
7.282988074433231
 20
-7.438032976717901
 30
0.0
 10
7.288985626245297
 20
-7.440882555575323
 30
0.0
 10
7.294690717933665
 20
-7.444662072855054
 30
0.0
 10
7.300972252764394
 20
-7.446519406568162
 30
0.0
 10
7.309522260902415
 20
-7.449047279289516
 30
0.0
 10
7.317868818519602
 20
-7.446938175556877
 30
0.0
 10
7.321997168671512
 20
-7.438457679680141
 30
0.0
 10
7.330147057451894
 20
-7.421714549526061
 30
0.0
 10
7.336972822425852
 20
-7.404339875046894
 30
0.0
 10
7.335345218259185
 20
-7.385151100090297
 30
0.0
 10
7.334187245711442
 20
-7.371513557365688
 30
0.0
 10
7.328175282820817
 20
-7.365642738273891
 30
0.0
 10
7.314041405596425
 20
-7.364130846590948
 30
0.0
 10
7.306691755531321
 20
-7.363344171243726
 30
0.0
 10
7.299197994680626
 20
-7.364024882778014
 30
0.0
 10
7.29179663427481
 20
-7.363576443921677
 30
0.0
 10
7.250875105140696
 20
-7.361096890699021
 30
0.0
 10
7.217452423120297
 20
-7.34353317677758
 30
0.0
 10
7.19307820301396
 20
-7.310912005038213
 30
0.0
 10
7.169151574053457
 20
-7.27888974076955
 30
0.0
 10
7.187164574541738
 20
-7.238872294887389
 30
0.0
 10
7.226812842499637
 20
-7.235392019415384
 30
0.0
 10
7.239837914385488
 20
-7.234248881801451
 30
0.0
 10
7.253313968259185
 20
-7.236776330667554
 30
0.0
 10
7.266439917694949
 20
-7.238637479077927
 30
0.0
 10
7.282563371470991
 20
-7.24092333045054
 30
0.0
 10
7.298437598359012
 20
-7.245350498554924
 30
0.0
 10
7.314604285370731
 20
-7.246852217711825
 30
0.0
 10
7.33067602880606
 20
-7.248345035908439
 30
0.0
 10
7.343151784285661
 20
-7.238011868726365
 30
0.0
 10
7.347452219669776
 20
-7.222596677075974
 30
0.0
 10
7.35126183067238
 20
-7.208941756286044
 30
0.0
 10
7.346233211965782
 20
-7.198452186516079
 30
0.0
 10
7.330269127764394
 20
-7.190716828171894
 30
0.0
 10
7.319671898760488
 20
-7.185582669507615
 30
0.0
 10
7.308422780379411
 20
-7.181364038187085
 30
0.0
 10
7.297033789765262
 20
-7.178384759622632
 30
0.0
 10
7.27191612754738
 20
-7.171816274786478
 30
0.0
 10
7.25079542035337
 20
-7.158512306144985
 30
0.0
 10
7.231720238604238
 20
-7.14161658810028
 30
0.0
 10
7.213970028372032
 20
-7.125893677537128
 30
0.0
 10
7.211810062009185
 20
-7.105611356031052
 30
0.0
 10
7.218272159177154
 20
-7.084450806443378
 30
0.0
 10
7.224279883515262
 20
-7.064774174092033
 30
0.0
 10
7.240600853838613
 20
-7.058018345234611
 30
0.0
 10
7.259577701169341
 20
-7.05614066646942
 30
0.0
 10
7.293176706974464
 20
-7.052815098164299
 30
0.0
 10
7.326490034339915
 20
-7.054338433939038
 30
0.0
 10
7.35842244129521
 20
-7.065867720641513
 30
0.0
 10
7.39447217816587
 20
-7.078883891567076
 30
0.0
 10
7.415915015351199
 20
-7.052238231166686
 30
0.0
 10
7.419176157658057
 20
-7.024150191344638
 30
0.0
 10
7.420969065372901
 20
-7.008715502352667
 30
0.0
 10
7.413228620765696
 20
-6.998002984720288
 30
0.0
 10
7.398118181041304
 20
-6.995412805276929
 30
0.0
 10
7.392319841197554
 20
-6.99441928856686
 30
0.0
 10
7.386243452308665
 20
-6.994283231031052
 30
0.0
 10
7.380359493704064
 20
-6.994696913756747
 30
0.0
 10
7.353133575464047
 20
-6.996611891784091
 30
0.0
 10
7.32717244129521
 20
-6.990496932067294
 30
0.0
 10
7.301809790741824
 20
-6.981844350958353
 30
0.0
 10
7.292922393823422
 20
-6.978812090487432
 30
0.0
 10
7.283977352590782
 20
-6.97403863264238
 30
0.0
 10
7.276911685544341
 20
-6.967920705938822
 30
0.0
 10
7.251512583439307
 20
-6.945929400057745
 30
0.0
 10
7.257729692271773
 20
-6.913888910013257
 30
0.0
 10
7.289336578393734
 20
-6.901313124694247
 30
0.0
 10
7.313056365991391
 20
-6.891875563659091
 30
0.0
 10
7.338007029240089
 20
-6.888537703551669
 30
0.0
 10
7.363299319821685
 20
-6.887272071769985
 30
0.0
 10
7.389988637313005
 20
-6.885936080016513
 30
0.0
 10
7.409017194984446
 20
-6.897632789543422
 30
0.0
 10
7.420315480574724
 20
-6.921680641105922
 30
0.0
 10
7.424088640025679
 20
-6.929710578850063
 30
0.0
 10
7.426731801375505
 20
-6.938265249395853
 30
0.0
 10
7.430352372935835
 20
-6.946374871927319
 30
0.0
 10
7.435718380422814
 20
-6.958400069274325
 30
0.0
 10
7.445487396264828
 20
-6.960904206101581
 30
0.0
 10
7.454911393931929
 20
-6.95170442786265
 30
0.0
 10
7.459989179847727
 20
-6.946747864548847
 30
0.0
 10
7.464146352156755
 20
-6.939881409470722
 30
0.0
 10
7.466294450572554
 20
-6.933107778692728
 30
0.0
 10
7.469857377818648
 20
-6.921869680548197
 30
0.0
 10
7.472020735023508
 20
-6.910094981654967
 30
0.0
 10
7.473782277449724
 20
-6.898397424417554
 30
0.0
 10
7.477783471026113
 20
-6.871813646883917
 30
0.0
 10
7.525222370710834
 20
-6.831640510322459
 30
0.0
 10
7.498956736271339
 20
-6.823195330233526
 30
0.0
 10
7.382591600794335
 20
-6.785780489657655
 30
0.0
 10
7.53384002348922
 20
-6.737582079501104
 30
0.0
 10
7.520576744951894
 20
-6.691339895391947
 30
0.0
 10
7.511621531193214
 20
-6.660120412970072
 30
0.0
 10
7.332927269302849
 20
-6.637750149850691
 30
0.0
 10
7.529509918237484
 20
-6.605340512525193
 30
0.0
 10
7.542053808701009
 20
-6.60327246154116
 30
0.0
 10
7.536940100800418
 20
-6.578849559291686
 30
0.0
 10
7.534621612573422
 20
-6.566585731437954
 30
0.0
 10
7.530808610728804
 20
-6.546417426994594
 30
0.0
 10
7.523364864797814
 20
-6.52664839419837
 30
0.0
 10
7.515200564938873
 20
-6.507679176262172
 30
0.0
 10
7.508444312226199
 20
-6.49198042544837
 30
0.0
 10
7.495735436358144
 20
-6.481904538404099
 30
0.0
 10
7.477230763777849
 20
-6.481004269849412
 30
0.0
 10
7.466141862681929
 20
-6.4804642782587
 30
0.0
 10
7.455100433374203
 20
-6.47881632903995
 30
0.0
 10
7.444056460934966
 20
-6.477504497035826
 30
0.0
 10
7.41124243505606
 20
-6.47360630028561
 30
0.0
 10
7.398018151201894
 20
-6.44408011959442
 30
0.0
 10
7.417288306366824
 20
-6.417276361185132
 30
0.0
 10
7.428505211748769
 20
-6.401675520934481
 30
0.0
 10
7.443508839949724
 20
-6.391134664679056
 30
0.0
 10
7.462446692597293
 20
-6.386946550936651
 30
0.0
 10
7.482694257972727
 20
-6.382468944057311
 30
0.0
 10
7.503006249346425
 20
-6.378271505499368
 30
0.0
 10
7.523336890351199
 20
-6.374187236293639
 30
0.0
 10
7.542466325572554
 20
-6.370344140726147
 30
0.0
 10
7.561672902449724
 20
-6.351337199672545
 30
0.0
 10
7.561683074975766
 20
-6.335869026115688
 30
0.0
 10
7.561692399791304
 20
-6.320714081589863
 30
0.0
 10
7.543562415253543
 20
-6.306446689961174
 30
0.0
 10
7.521528723847293
 20
-6.304322327439472
 30
0.0
 10
7.518576148163699
 20
-6.304037496710306
 30
0.0
 10
7.515598141165001
 20
-6.304020542500236
 30
0.0
 10
7.512637936086876
 20
-6.303811158005878
 30
0.0
 10
7.510417782278282
 20
-6.303654331562736
 30
0.0
 10
7.508173892575591
 20
-6.303554301723326
 30
0.0
 10
7.505995276581668
 20
-6.303142738273891
 30
0.0
 10
7.489203826928891
 20
-6.299970181714646
 30
0.0
 10
7.475375973196251
 20
-6.288003900247632
 30
0.0
 10
7.474414669485314
 20
-6.275902408955314
 30
0.0
 10
7.473380462671078
 20
-6.262893019713778
 30
0.0
 10
7.48360554676396
 20
-6.249747572936434
 30
0.0
 10
7.500114708819082
 20
-6.243070157300584
 30
0.0
 10
7.502850270613786
 20
-6.2419634712383
 30
0.0
 10
7.505779958113786
 20
-6.241321754387172
 30
0.0
 10
7.508642676484012
 20
-6.240551185539516
 30
0.0
 10
7.534778439016564
 20
-6.233513916794941
 30
0.0
 10
7.556340803382883
 20
-6.2431472989564
 30
0.0
 10
7.577041893877675
 20
-6.258183564011738
 30
0.0
 10
7.60057094661205
 20
-6.275272983906486
 30
0.0
 10
7.620428565155887
 20
-6.269969283141513
 30
0.0
 10
7.632844133189741
 20
-6.243748325703361
 30
0.0
 10
7.647618031844255
 20
-6.212548764478318
 30
0.0
 10
7.642035010468387
 20
-6.182069333325974
 30
0.0
 10
7.623872812931495
 20
-6.155019738870679
 30
0.0
 10
7.611486914765262
 20
-6.136571862894116
 30
0.0
 10
7.593253509546078
 20
-6.124145274623717
 30
0.0
 10
7.569360789005714
 20
-6.119888496330532
 30
0.0
 10
7.526412384057797
 20
-6.112237485181443
 30
0.0
 10
7.485090735566043
 20
-6.121135478481139
 30
0.0
 10
7.443653798445817
 20
-6.12892127560028
 30
0.0
 10
7.415293643552154
 20
-6.134249983825106
 30
0.0
 10
7.387348866805192
 20
-6.141862848001538
 30
0.0
 10
7.35931592816587
 20
-6.148844591708135
 30
0.0
 10
7.322662621416738
 20
-6.157973162264776
 30
0.0
 10
7.285737199595991
 20
-6.166268009541252
 30
0.0
 10
7.249612016490523
 20
-6.17718058685245
 30
0.0
 10
7.214267574758751
 20
-6.187857924498934
 30
0.0
 10
7.179691158743126
 20
-6.201127137009785
 30
0.0
 10
7.144944352916304
 20
-6.21371860497311
 30
0.0
 10
7.118499176049984
 20
-6.223301548359611
 30
0.0
 10
7.092032806421078
 20
-6.232928148837042
 30
0.0
 10
7.066080149357276
 20
-6.243745782571851
 30
0.0
 10
7.028500295027849
 20
-6.259408505689255
 30
0.0
 10
6.991535878523942
 20
-6.276543278095939
 30
0.0
 10
6.954017059350766
 20
-6.292358589103969
 30
0.0
 10
6.907604061575157
 20
-6.311922475958353
 30
0.0
 10
6.860028428844038
 20
-6.328940688170809
 30
0.0
 10
6.81450891793909
 20
-6.350359789462042
 30
0.0
 10
6.741483320472727
 20
-6.384721734720288
 30
0.0
 10
6.669558051239871
 20
-6.421447096862216
 30
0.0
 10
6.597504777720991
 20
-6.457840156486782
 30
0.0
 10
6.547655585419559
 20
-6.483018430005662
 30
0.0
 10
6.497209604923682
 20
-6.505553966029967
 30
0.0
 10
6.440664347355323
 20
-6.511215400627407
 30
0.0
 10
6.405082546682579
 20
-6.514777904018248
 30
0.0
 10
6.368478830997901
 20
-6.489911587964646
 30
0.0
 10
6.365328738766998
 20
-6.454422611592033
 30
0.0
 10
6.361799719941043
 20
-6.414666260544941
 30
0.0
 10
6.357858289955149
 20
-6.373990567456834
 30
0.0
 10
6.362506710500939
 20
-6.334709782002189
 30
0.0
 10
6.368114315481407
 20
-6.287324036423847
 30
0.0
 10
6.358563585094038
 20
-6.245097033114385
 30
0.0
 10
6.339189585392432
 20
-6.203308719990471
 30
0.0
 10
6.335182457842519
 20
-6.194665463697068
 30
0.0
 10
6.330771820092953
 20
-6.185458903774108
 30
0.0
 10
6.329969885956668
 20
-6.176215044588995
 30
0.0
 10
6.327088941810618
 20
-6.14301785356252
 30
0.0
 10
6.325674112980323
 20
-6.109693505960522
 30
0.0
 10
6.323705305336008
 20
-6.076417477857224
 30
0.0
  0
POLYLINE
  5
46
330
41
100
AcDbEntity
  8
Layer 1
 62
   250
420
  2301728
370
    35
100
AcDb2dPolyline
 66
     1
 10
0.0
 20
0.0
 30
0.0
  0
VERTEX
  5
47
330
46
100
AcDbEntity
  8
Layer 1
 62
   250
420
  2301728
370
    35
100
AcDbVertex
100
AcDb2dVertex
 10
3.059278822547955
 20
-5.721471517993968
 30
0.0
  0
VERTEX
  5
5C
330
46
100
AcDbEntity
  8
0
100
AcDbVertex
100
AcDb2dVertex
 10
3.059278822547955
 20
-5.721471517993968
 30
0.0
  0
SEQEND
  5
48
330
46
100
AcDbEntity
  8
Layer 1
 62
   250
420
  2301728
370
    35
  0
POLYLINE
  5
49
330
41
100
AcDbEntity
  8
Layer 1
 62
   250
420
  2301728
370
    35
100
AcDb2dPolyline
 66
     1
 10
0.0
 20
0.0
 30
0.0
  0
VERTEX
  5
4A
330
49
100
AcDbEntity
  8
Layer 1
 62
   250
420
  2301728
370
    35
100
AcDbVertex
100
AcDb2dVertex
 10
3.20390192481788
 20
-5.723673143623728
 30
0.0
  0
VERTEX
  5
5D
330
49
100
AcDbEntity
  8
0
100
AcDbVertex
100
AcDb2dVertex
 10
3.20390192481788
 20
-5.723673143623728
 30
0.0
  0
SEQEND
  5
4B
330
49
100
AcDbEntity
  8
Layer 1
 62
   250
420
  2301728
370
    35
  0
POLYLINE
  5
4C
330
41
100
AcDbEntity
  8
Layer 1
 62
   250
420
  2301728
370
    35
100
AcDb2dPolyline
 66
     1
 10
0.0
 20
0.0
 30
0.0
  0
VERTEX
  5
4D
330
4C
100
AcDbEntity
  8
Layer 1
 62
   250
420
  2301728
370
    35
100
AcDbVertex
100
AcDb2dVertex
 10
0.7705574595379403
 20
-6.533971341382615
 30
0.0
  0
VERTEX
  5
5E
330
4C
100
AcDbEntity
  8
0
100
AcDbVertex
100
AcDb2dVertex
 10
0.7705574595379403
 20
-6.533971341382615
 30
0.0
  0
SEQEND
  5
4E
330
4C
100
AcDbEntity
  8
Layer 1
 62
   250
420
  2301728
370
    35
  0
SPLINE
  5
4F
330
41
100
AcDbEntity
  8
Layer 1
 62
   250
420
  2301728
370
    35
100
AcDbSpline
210
0.0
220
0.0
230
1.0
 70
     8
 71
     3
 72
    11
 73
     7
 74
     0
 42
0.0000000001
 43
0.0000000001
 12
1.0
 22
0.0
 32
0.0
 13
1.0
 23
0.0
 33
0.0
 40
0.0
 40
0.0
 40
0.0
 40
0.0
 40
1.0
 40
1.0
 40
1.0
 40
2.0
 40
2.0
 40
2.0
 40
2.0
 10
0.7568168140233461
 20
-6.36457335147376
 30
0.0
 10
0.742438372318702
 20
-6.388484721645201
 30
0.0
 10
0.7165383792699281
 20
-6.432912381421677
 30
0.0
 10
0.7164140837173565
 20
-6.492576365932311
 30
0.0
 10
0.7161732279705575
 20
-6.608226966789516
 30
0.0
 10
0.7976372536799216
 20
-6.71606252451521
 30
0.0
 10
0.7823342777074281
 20
-6.694343333705748
 30
0.0
  0
ENDBLK
  5
44
330
41
100
AcDbEntity
  8
0
100
AcDbBlockEnd
  0
ENDSEC
  0
SECTION
  2
ENTITIES
  0
INSERT
  5
42
330
1F
100
AcDbEntity
  8
Layer 1
100
AcDbBlockReference
  2
block 2
 10
0.0
 20
0.0
 30
0.0
  0
POLYLINE
  5
50
330
1F
100
AcDbEntity
  8
Layer 1
 62
   250
420
  2301728
370
    35
100
AcDb2dPolyline
 66
     1
 10
0.0
 20
0.0
 30
0.0
  0
VERTEX
  5
51
330
50
100
AcDbEntity
  8
Layer 1
 62
   250
420
  2301728
370
    35
100
AcDbVertex
100
AcDb2dVertex
 10
3.809362028681335
 20
-6.190823999201888
 30
0.0
  0
VERTEX
  5
5F
330
50
100
AcDbEntity
  8
0
100
AcDbVertex
100
AcDb2dVertex
 10
3.809362028681335
 20
-6.190823999201888
 30
0.0
  0
SEQEND
  5
52
330
50
100
AcDbEntity
  8
Layer 1
 62
   250
420
  2301728
370
    35
  0
POLYLINE
  5
53
330
1F
100
AcDbEntity
  8
Layer 1
 62
   250
420
  2301728
370
    35
100
AcDb2dPolyline
 66
     1
 10
0.0
 20
0.0
 30
0.0
  0
VERTEX
  5
54
330
53
100
AcDbEntity
  8
Layer 1
 62
   250
420
  2301728
370
    35
100
AcDbVertex
100
AcDb2dVertex
 10
3.806658111090036
 20
-6.017499075183069
 30
0.0
  0
VERTEX
  5
60
330
53
100
AcDbEntity
  8
0
100
AcDbVertex
100
AcDb2dVertex
 10
3.806658111090036
 20
-6.017499075183069
 30
0.0
  0
SEQEND
  5
55
330
53
100
AcDbEntity
  8
Layer 1
 62
   250
420
  2301728
370
    35
  0
POLYLINE
  5
56
330
1F
100
AcDbEntity
  8
Layer 1
 62
   250
420
  2301728
370
    35
100
AcDb2dPolyline
 66
     1
 10
0.0
 20
0.0
 30
0.0
  0
VERTEX
  5
57
330
56
100
AcDbEntity
  8
Layer 1
 62
   250
420
  2301728
370
    35
100
AcDbVertex
100
AcDb2dVertex
 10
3.809362028681335
 20
-6.190823999201888
 30
0.0
  0
VERTEX
  5
61
330
56
100
AcDbEntity
  8
0
100
AcDbVertex
100
AcDb2dVertex
 10
3.809362028681335
 20
-6.190823999201888
 30
0.0
  0
SEQEND
  5
58
330
56
100
AcDbEntity
  8
Layer 1
 62
   250
420
  2301728
370
    35
  0
POLYLINE
  5
59
330
1F
100
AcDbEntity
  8
Layer 1
 62
   250
420
  2301728
370
    35
100
AcDb2dPolyline
 66
     1
 10
0.0
 20
0.0
 30
0.0
  0
VERTEX
  5
5A
330
59
100
AcDbEntity
  8
Layer 1
 62
   250
420
  2301728
370
    35
100
AcDbVertex
100
AcDb2dVertex
 10
3.806658111090036
 20
-6.017499075183069
 30
0.0
  0
VERTEX
  5
62
330
59
100
AcDbEntity
  8
0
100
AcDbVertex
100
AcDb2dVertex
 10
3.806658111090036
 20
-6.017499075183069
 30
0.0
  0
SEQEND
  5
5B
330
59
100
AcDbEntity
  8
Layer 1
 62
   250
420
  2301728
370
    35
  0
ENDSEC
  0
SECTION
  2
OBJECTS
  0
DICTIONARY
  5
C
330
0
100
AcDbDictionary
281
     1
  3
ACAD_GROUP
350
D
  3
ACAD_LAYOUT
350
1A
  3
ACAD_MATERIAL
350
3B
  3
ACAD_MLEADERSTYLE
350
64
  3
ACAD_MLINESTYLE
350
17
  3
ACAD_PLOTSETTINGS
350
19
  3
ACAD_PLOTSTYLENAME
350
E
  3
ACAD_TABLESTYLE
350
63
  3
ACAD_VISUALSTYLE
350
2A
  0
SUN
  5
3F
330
29
100
AcDbSun
 90
        1
290
     0
 63
     7
421
 16777215
 40
1.0
291
     1
 91
  2455826
 92
 54000000
292
     0
 70
     2
 71
   256
280
     1
  0
DICTIONARY
  5
D
102
{ACAD_REACTORS
330
C
102
}
330
C
100
AcDbDictionary
281
     1
  0
DICTIONARY
  5
1A
102
{ACAD_REACTORS
330
C
102
}
330
C
100
AcDbDictionary
281
     1
  3
Layout1
350
1E
  3
Layout2
350
26
  3
Model
350
22
  0
DICTIONARY
  5
3B
102
{ACAD_REACTORS
330
C
102
}
330
C
100
AcDbDictionary
281
     1
  3
ByBlock
350
3D
  3
ByLayer
350
3C
  3
Global
350
3E
  0
DICTIONARY
  5
64
102
{ACAD_REACTORS
330
C
102
}
330
C
100
AcDbDictionary
281
     1
  0
DICTIONARY
  5
17
102
{ACAD_REACTORS
330
C
102
}
330
C
100
AcDbDictionary
281
     1
  3
Standard
350
18
  0
DICTIONARY
  5
19
102
{ACAD_REACTORS
330
C
102
}
330
C
100
AcDbDictionary
281
     1
  0
ACDBDICTIONARYWDFLT
  5
E
102
{ACAD_REACTORS
330
C
102
}
330
C
100
AcDbDictionary
281
     1
  3
Normal
350
F
100
AcDbDictionaryWithDefault
340
F
  0
DICTIONARY
  5
63
102
{ACAD_REACTORS
330
C
102
}
330
C
100
AcDbDictionary
281
     1
  0
DICTIONARY
  5
2A
102
{ACAD_REACTORS
330
C
102
}
330
C
100
AcDbDictionary
281
     1
  3
2dWireframe
350
2F
  3
3D Hidden
350
31
  3
3dWireframe
350
30
  3
Basic
350
32
  3
Brighten
350
36
  3
ColorChange
350
3A
  3
Conceptual
350
34
  3
Dim
350
35
  3
Facepattern
350
39
  3
Flat
350
2B
  3
FlatWithEdges
350
2C
  3
Gouraud
350
2D
  3
GouraudWithEdges
350
2E
  3
Linepattern
350
38
  3
Realistic
350
33
  3
Thicken
350
37
  0
LAYOUT
  5
1E
102
{ACAD_REACTORS
330
1A
102
}
330
1A
100
AcDbPlotSettings
  1

  2
none_device
  4

  6

 40
0.0
 41
0.0
 42
0.0
 43
0.0
 44
0.0
 45
0.0
 46
0.0
 47
0.0
 48
0.0
 49
0.0
140
0.0
141
0.0
142
1.0
143
1.0
 70
   688
 72
     0
 73
     0
 74
     5
  7

 75
    16
 76
     0
 77
     2
 78
   300
147
1.0
148
0.0
149
0.0
100
AcDbLayout
  1
Layout1
 70
     1
 71
     1
 10
0.0
 20
0.0
 11
12.0
 21
9.0
 12
0.0
 22
0.0
 32
0.0
 14
1.000000000000000E+20
 24
1.000000000000000E+20
 34
1.000000000000000E+20
 15
-1.000000000000000E+20
 25
-1.000000000000000E+20
 35
-1.000000000000000E+20
146
0.0
 13
0.0
 23
0.0
 33
0.0
 16
1.0
 26
0.0
 36
0.0
 17
0.0
 27
1.0
 37
0.0
 76
     0
330
1B
  0
LAYOUT
  5
26
102
{ACAD_REACTORS
330
1A
102
}
330
1A
100
AcDbPlotSettings
  1

  2
none_device
  4

  6

 40
0.0
 41
0.0
 42
0.0
 43
0.0
 44
0.0
 45
0.0
 46
0.0
 47
0.0
 48
0.0
 49
0.0
140
0.0
141
0.0
142
1.0
143
1.0
 70
   688
 72
     0
 73
     0
 74
     5
  7

 75
    16
 76
     0
 77
     2
 78
   300
147
1.0
148
0.0
149
0.0
100
AcDbLayout
  1
Layout2
 70
     1
 71
     2
 10
0.0
 20
0.0
 11
0.0
 21
0.0
 12
0.0
 22
0.0
 32
0.0
 14
0.0
 24
0.0
 34
0.0
 15
0.0
 25
0.0
 35
0.0
146
0.0
 13
0.0
 23
0.0
 33
0.0
 16
1.0
 26
0.0
 36
0.0
 17
0.0
 27
1.0
 37
0.0
 76
     0
330
23
  0
LAYOUT
  5
22
102
{ACAD_REACTORS
330
1A
102
}
330
1A
100
AcDbPlotSettings
  1

  2
none_device
  4

  6

 40
0.0
 41
0.0
 42
0.0
 43
0.0
 44
0.0
 45
0.0
 46
0.0
 47
0.0
 48
0.0
 49
0.0
140
0.0
141
0.0
142
1.0
143
1.0
 70
  1712
 72
     0
 73
     0
 74
     0
  7

 75
     0
 76
     0
 77
     2
 78
   300
147
1.0
148
0.0
149
0.0
100
AcDbLayout
  1
Model
 70
     1
 71
     0
 10
0.0
 20
0.0
 11
12.0
 21
9.0
 12
0.0
 22
0.0
 32
0.0
 14
1.000000000000000E+20
 24
1.000000000000000E+20
 34
1.000000000000000E+20
 15
-1.000000000000000E+20
 25
-1.000000000000000E+20
 35
-1.000000000000000E+20
146
0.0
 13
0.0
 23
0.0
 33
0.0
 16
1.0
 26
0.0
 36
0.0
 17
0.0
 27
1.0
 37
0.0
 76
     0
330
1F
331
29
  0
MATERIAL
  5
3D
102
{ACAD_REACTORS
330
3B
102
}
330
3B
100
AcDbMaterial
  1
ByBlock
 72
     1
 94
      127
  0
MATERIAL
  5
3C
102
{ACAD_REACTORS
330
3B
102
}
330
3B
100
AcDbMaterial
  1
ByLayer
 72
     1
 94
      127
  0
MATERIAL
  5
3E
102
{ACAD_REACTORS
330
3B
102
}
330
3B
100
AcDbMaterial
  1
Global
 72
     1
 94
      127
  0
MLINESTYLE
  5
18
102
{ACAD_REACTORS
330
17
102
}
330
17
100
AcDbMlineStyle
  2
Standard
 70
     0
  3

 62
   256
 51
90.0
 52
90.0
 71
     2
 49
0.5
 62
   256
  6
BYLAYER
 49
-0.5
 62
   256
  6
BYLAYER
  0
ACDBPLACEHOLDER
  5
F
102
{ACAD_REACTORS
330
E
102
}
330
E
  0
VISUALSTYLE
  5
2F
102
{ACAD_REACTORS
330
2A
102
}
330
2A
100
AcDbVisualStyle
  2
2dWireframe
 70
     4
177
     2
291
     0
 71
     0
176
     1
 72
     2
176
     1
 73
     0
176
     1
 90
        0
176
     1
 40
-0.6
176
     1
 41
-30.0
176
     1
 62
     5
 63
     7
421
 16777215
176
     1
 74
     1
176
     1
 91
        4
176
     1
 64
     7
176
     1
 65
   257
176
     1
 75
     1
176
     1
175
     1
176
     1
 42
1.0
176
     1
 92
        0
176
     1
 66
   257
176
     1
 43
1.0
176
     1
 76
     1
176
     1
 77
     6
176
     1
 78
     2
176
     1
 67
     7
176
     1
 79
     5
176
     1
170
     0
176
     1
171
     0
176
     1
290
     0
176
     1
 93
        1
176
     1
 44
0.0
176
     1
173
     0
176
     1
  0
VISUALSTYLE
  5
31
102
{ACAD_REACTORS
330
2A
102
}
330
2A
100
AcDbVisualStyle
  2
3D Hidden
 70
     6
177
     2
291
     0
 71
     1
176
     1
 72
     2
176
     1
 73
     2
176
     1
 90
        0
176
     1
 40
-0.6
176
     1
 41
-30.0
176
     1
 62
     5
 63
     7
421
 16777215
176
     1
 74
     2
176
     1
 91
        2
176
     1
 64
     7
176
     1
 65
   257
176
     1
 75
     2
176
     1
175
     1
176
     1
 42
40.0
176
     1
 92
        0
176
     1
 66
   257
176
     1
 43
1.0
176
     1
 76
     1
176
     1
 77
     6
176
     1
 78
     2
176
     1
 67
     7
176
     1
 79
     3
176
     1
170
     0
176
     1
171
     0
176
     1
290
     0
176
     1
 93
        1
176
     1
 44
0.0
176
     1
173
     0
176
     1
  0
VISUALSTYLE
  5
30
102
{ACAD_REACTORS
330
2A
102
}
330
2A
100
AcDbVisualStyle
  2
3dWireframe
 70
     5
177
     2
291
     0
 71
     0
176
     1
 72
     2
176
     1
 73
     0
176
     1
 90
        0
176
     1
 40
-0.6
176
     1
 41
-30.0
176
     1
 62
     5
 63
     7
421
 16777215
176
     1
 74
     1
176
     1
 91
        4
176
     1
 64
     7
176
     1
 65
   257
176
     1
 75
     1
176
     1
175
     1
176
     1
 42
1.0
176
     1
 92
        0
176
     1
 66
   257
176
     1
 43
1.0
176
     1
 76
     1
176
     1
 77
     6
176
     1
 78
     2
176
     1
 67
     7
176
     1
 79
     5
176
     1
170
     0
176
     1
171
     0
176
     1
290
     0
176
     1
 93
        1
176
     1
 44
0.0
176
     1
173
     0
176
     1
  0
VISUALSTYLE
  5
32
102
{ACAD_REACTORS
330
2A
102
}
330
2A
100
AcDbVisualStyle
  2
Basic
 70
     7
177
     2
291
     1
 71
     1
176
     1
 72
     0
176
     1
 73
     1
176
     1
 90
        0
176
     1
 40
-0.6
176
     1
 41
-30.0
176
     1
 62
     5
 63
     7
421
 16777215
176
     1
 74
     0
176
     1
 91
        4
176
     1
 64
     7
176
     1
 65
   257
176
     1
 75
     1
176
     1
175
     1
176
     1
 42
1.0
176
     1
 92
        8
176
     1
 66
     7
176
     1
 43
1.0
176
     1
 76
     1
176
     1
 77
     6
176
     1
 78
     2
176
     1
 67
     7
176
     1
 79
     5
176
     1
170
     0
176
     1
171
     0
176
     1
290
     0
176
     1
 93
        1
176
     1
 44
0.0
176
     1
173
     0
176
     1
  0
VISUALSTYLE
  5
36
102
{ACAD_REACTORS
330
2A
102
}
330
2A
100
AcDbVisualStyle
  2
Brighten
 70
    12
177
     2
291
     1
 71
     2
176
     1
 72
     2
176
     1
 73
     0
176
     1
 90
        0
176
     1
 40
-0.6
176
     1
 41
-30.0
176
     1
 62
     5
 63
     7
421
 16777215
176
     1
 74
     1
176
     1
 91
        4
176
     1
 64
     7
176
     1
 65
   257
176
     1
 75
     1
176
     1
175
     1
176
     1
 42
1.0
176
     1
 92
        8
176
     1
 66
     7
176
     1
 43
1.0
176
     1
 76
     1
176
     1
 77
     6
176
     1
 78
     2
176
     1
 67
     7
176
     1
 79
     5
176
     1
170
     0
176
     1
171
     0
176
     1
290
     0
176
     1
 93
        1
176
     1
 44
50.0
176
     1
173
     0
176
     1
  0
VISUALSTYLE
  5
3A
102
{ACAD_REACTORS
330
2A
102
}
330
2A
100
AcDbVisualStyle
  2
ColorChange
 70
    16
177
     2
291
     1
 71
     2
176
     1
 72
     2
176
     1
 73
     3
176
     1
 90
        0
176
     1
 40
-0.6
176
     1
 41
-30.0
176
     1
 62
     5
 63
     8
421
  8421504
176
     1
 74
     1
176
     1
 91
        4
176
     1
 64
     7
176
     1
 65
   257
176
     1
 75
     1
176
     1
175
     1
176
     1
 42
1.0
176
     1
 92
        8
176
     1
 66
     8
424
  8421504
176
     1
 43
1.0
176
     1
 76
     1
176
     1
 77
     6
176
     1
 78
     2
176
     1
 67
     7
176
     1
 79
     5
176
     1
170
     0
176
     1
171
     0
176
     1
290
     0
176
     1
 93
        1
176
     1
 44
0.0
176
     1
173
     0
176
     1
  0
VISUALSTYLE
  5
34
102
{ACAD_REACTORS
330
2A
102
}
330
2A
100
AcDbVisualStyle
  2
Conceptual
 70
     9
177
     2
291
     0
 71
     3
176
     1
 72
     2
176
     1
 73
     0
176
     1
 90
        0
176
     1
 40
-0.6
176
     1
 41
-30.0
176
     1
 62
     5
 63
     7
421
 16777215
176
     1
 74
     2
176
     1
 91
        2
176
     1
 64
     7
176
     1
 65
   257
176
     1
 75
     1
176
     1
175
     1
176
     1
 42
40.0
176
     1
 92
        8
176
     1
 66
     7
176
     1
 43
1.0
176
     1
 76
     1
176
     1
 77
     6
176
     1
 78
     2
176
     1
 67
     7
176
     1
 79
     3
176
     1
170
     0
176
     1
171
     0
176
     1
290
     0
176
     1
 93
        1
176
     1
 44
0.0
176
     1
173
     0
176
     1
  0
VISUALSTYLE
  5
35
102
{ACAD_REACTORS
330
2A
102
}
330
2A
100
AcDbVisualStyle
  2
Dim
 70
    11
177
     2
291
     1
 71
     2
176
     1
 72
     2
176
     1
 73
     0
176
     1
 90
        0
176
     1
 40
-0.6
176
     1
 41
-30.0
176
     1
 62
     5
 63
     7
421
 16777215
176
     1
 74
     1
176
     1
 91
        4
176
     1
 64
     7
176
     1
 65
   257
176
     1
 75
     1
176
     1
175
     1
176
     1
 42
1.0
176
     1
 92
        8
176
     1
 66
     7
176
     1
 43
1.0
176
     1
 76
     1
176
     1
 77
     6
176
     1
 78
     2
176
     1
 67
     7
176
     1
 79
     5
176
     1
170
     0
176
     1
171
     0
176
     1
290
     0
176
     1
 93
        1
176
     1
 44
-50.0
176
     1
173
     0
176
     1
  0
VISUALSTYLE
  5
39
102
{ACAD_REACTORS
330
2A
102
}
330
2A
100
AcDbVisualStyle
  2
Facepattern
 70
    15
177
     2
291
     1
 71
     2
176
     1
 72
     2
176
     1
 73
     0
176
     1
 90
        0
176
     1
 40
-0.6
176
     1
 41
-30.0
176
     1
 62
     5
 63
     7
421
 16777215
176
     1
 74
     1
176
     1
 91
        4
176
     1
 64
     7
176
     1
 65
   257
176
     1
 75
     1
176
     1
175
     1
176
     1
 42
1.0
176
     1
 92
        8
176
     1
 66
     7
176
     1
 43
1.0
176
     1
 76
     1
176
     1
 77
     6
176
     1
 78
     2
176
     1
 67
     7
176
     1
 79
     5
176
     1
170
     0
176
     1
171
     0
176
     1
290
     0
176
     1
 93
        1
176
     1
 44
0.0
176
     1
173
     0
176
     1
  0
VISUALSTYLE
  5
2B
102
{ACAD_REACTORS
330
2A
102
}
330
2A
100
AcDbVisualStyle
  2
Flat
 70
     0
177
     2
291
     1
 71
     2
176
     1
 72
     1
176
     1
 73
     1
176
     1
 90
        2
176
     1
 40
-0.6
176
     1
 41
30.0
176
     1
 62
     5
 63
     7
421
 16777215
176
     1
 74
     0
176
     1
 91
        4
176
     1
 64
     7
176
     1
 65
   257
176
     1
 75
     1
176
     1
175
     1
176
     1
 42
1.0
176
     1
 92
        8
176
     1
 66
     7
176
     1
 43
1.0
176
     1
 76
     1
176
     1
 77
     6
176
     1
 78
     2
176
     1
 67
     7
176
     1
 79
     5
176
     1
170
     0
176
     1
171
     0
176
     1
290
     0
176
     1
 93
       13
176
     1
 44
0.0
176
     1
173
     0
176
     1
  0
VISUALSTYLE
  5
2C
102
{ACAD_REACTORS
330
2A
102
}
330
2A
100
AcDbVisualStyle
  2
FlatWithEdges
 70
     1
177
     2
291
     1
 71
     2
176
     1
 72
     1
176
     1
 73
     1
176
     1
 90
        2
176
     1
 40
-0.6
176
     1
 41
30.0
176
     1
 62
     5
 63
     7
421
 16777215
176
     1
 74
     1
176
     1
 91
        4
176
     1
 64
     7
176
     1
 65
   257
176
     1
 75
     1
176
     1
175
     1
176
     1
 42
1.0
176
     1
 92
        0
176
     1
 66
   257
176
     1
 43
1.0
176
     1
 76
     1
176
     1
 77
     6
176
     1
 78
     2
176
     1
 67
     7
176
     1
 79
     5
176
     1
170
     0
176
     1
171
     0
176
     1
290
     0
176
     1
 93
       13
176
     1
 44
0.0
176
     1
173
     0
176
     1
  0
VISUALSTYLE
  5
2D
102
{ACAD_REACTORS
330
2A
102
}
330
2A
100
AcDbVisualStyle
  2
Gouraud
 70
     2
177
     2
291
     1
 71
     2
176
     1
 72
     2
176
     1
 73
     1
176
     1
 90
        2
176
     1
 40
-0.6
176
     1
 41
30.0
176
     1
 62
     5
 63
     7
421
 16777215
176
     1
 74
     0
176
     1
 91
        4
176
     1
 64
     7
176
     1
 65
   257
176
     1
 75
     1
176
     1
175
     1
176
     1
 42
1.0
176
     1
 92
        0
176
     1
 66
     7
176
     1
 43
1.0
176
     1
 76
     1
176
     1
 77
     6
176
     1
 78
     2
176
     1
 67
     7
176
     1
 79
     5
176
     1
170
     0
176
     1
171
     0
176
     1
290
     0
176
     1
 93
       13
176
     1
 44
0.0
176
     1
173
     0
176
     1
  0
VISUALSTYLE
  5
2E
102
{ACAD_REACTORS
330
2A
102
}
330
2A
100
AcDbVisualStyle
  2
GouraudWithEdges
 70
     3
177
     2
291
     1
 71
     2
176
     1
 72
     2
176
     1
 73
     1
176
     1
 90
        2
176
     1
 40
-0.6
176
     1
 41
30.0
176
     1
 62
     5
 63
     7
421
 16777215
176
     1
 74
     1
176
     1
 91
        4
176
     1
 64
     7
176
     1
 65
   257
176
     1
 75
     1
176
     1
175
     1
176
     1
 42
1.0
176
     1
 92
        0
176
     1
 66
   257
176
     1
 43
1.0
176
     1
 76
     1
176
     1
 77
     6
176
     1
 78
     2
176
     1
 67
     7
176
     1
 79
     5
176
     1
170
     0
176
     1
171
     0
176
     1
290
     0
176
     1
 93
       13
176
     1
 44
0.0
176
     1
173
     0
176
     1
  0
VISUALSTYLE
  5
38
102
{ACAD_REACTORS
330
2A
102
}
330
2A
100
AcDbVisualStyle
  2
Linepattern
 70
    14
177
     2
291
     1
 71
     2
176
     1
 72
     2
176
     1
 73
     0
176
     1
 90
        0
176
     1
 40
-0.6
176
     1
 41
-30.0
176
     1
 62
     5
 63
     7
421
 16777215
176
     1
 74
     1
176
     1
 91
        4
176
     1
 64
     7
176
     1
 65
   257
176
     1
 75
     7
176
     1
175
     7
176
     1
 42
1.0
176
     1
 92
        8
176
     1
 66
     7
176
     1
 43
1.0
176
     1
 76
     1
176
     1
 77
     6
176
     1
 78
     2
176
     1
 67
     7
176
     1
 79
     5
176
     1
170
     0
176
     1
171
     0
176
     1
290
     0
176
     1
 93
        1
176
     1
 44
0.0
176
     1
173
     0
176
     1
  0
VISUALSTYLE
  5
33
102
{ACAD_REACTORS
330
2A
102
}
330
2A
100
AcDbVisualStyle
  2
Realistic
 70
     8
177
     2
291
     0
 71
     2
176
     1
 72
     2
176
     1
 73
     0
176
     1
 90
        0
176
     1
 40
-0.6
176
     1
 41
-30.0
176
     1
 62
     5
 63
     7
421
 16777215
176
     1
 74
     1
176
     1
 91
        0
176
     1
 64
     7
176
     1
 65
   257
176
     1
 75
     1
176
     1
175
     1
176
     1
 42
1.0
176
     1
 92
        8
176
     1
 66
     8
424
  7895160
176
     1
 43
1.0
176
     1
 76
     1
176
     1
 77
     6
176
     1
 78
     2
176
     1
 67
     7
176
     1
 79
     5
176
     1
170
     0
176
     1
171
     0
176
     1
290
     0
176
     1
 93
       13
176
     1
 44
0.0
176
     1
173
     0
176
     1
  0
VISUALSTYLE
  5
37
102
{ACAD_REACTORS
330
2A
102
}
330
2A
100
AcDbVisualStyle
  2
Thicken
 70
    13
177
     2
291
     1
 71
     2
176
     1
 72
     2
176
     1
 73
     0
176
     1
 90
        0
176
     1
 40
-0.6
176
     1
 41
-30.0
176
     1
 62
     5
 63
     7
421
 16777215
176
     1
 74
     1
176
     1
 91
        4
176
     1
 64
     7
176
     1
 65
   257
176
     1
 75
     1
176
     1
175
     1
176
     1
 42
1.0
176
     1
 92
       12
176
     1
 66
     7
176
     1
 43
1.0
176
     1
 76
     1
176
     1
 77
     6
176
     1
 78
     2
176
     1
 67
     7
176
     1
 79
     5
176
     1
170
     0
176
     1
171
     0
176
     1
290
     0
176
     1
 93
        1
176
     1
 44
0.0
176
     1
173
     0
176
     1
  0
ENDSEC
  0
EOF
